{
	"patcher" : 	{
		"fileversion" : 1,
		"appversion" : 		{
			"major" : 8,
			"minor" : 0,
			"revision" : 2,
			"architecture" : "x64",
			"modernui" : 1
		}
,
		"classnamespace" : "box",
		"rect" : [ -1324.0, 509.0, 1298.0, 617.0 ],
		"bglocked" : 0,
		"openinpresentation" : 0,
		"default_fontsize" : 12.0,
		"default_fontface" : 0,
		"default_fontname" : "Arial",
		"gridonopen" : 1,
		"gridsize" : [ 15.0, 15.0 ],
		"gridsnaponopen" : 1,
		"objectsnaponopen" : 1,
		"statusbarvisible" : 2,
		"toolbarvisible" : 1,
		"lefttoolbarpinned" : 0,
		"toptoolbarpinned" : 0,
		"righttoolbarpinned" : 0,
		"bottomtoolbarpinned" : 0,
		"toolbars_unpinned_last_save" : 0,
		"tallnewobj" : 0,
		"boxanimatetime" : 200,
		"enablehscroll" : 1,
		"enablevscroll" : 1,
		"devicewidth" : 0.0,
		"description" : "",
		"digest" : "",
		"tags" : "",
		"style" : "",
		"subpatcher_template" : "",
		"boxes" : [ 			{
				"box" : 				{
					"id" : "obj-18",
					"maxclass" : "button",
					"numinlets" : 1,
					"numoutlets" : 1,
					"outlettype" : [ "bang" ],
					"parameter_enable" : 0,
					"patching_rect" : [ 1012.0, 64.0, 24.0, 24.0 ]
				}

			}
, 			{
				"box" : 				{
					"id" : "obj-13",
					"maxclass" : "button",
					"numinlets" : 1,
					"numoutlets" : 1,
					"outlettype" : [ "bang" ],
					"parameter_enable" : 0,
					"patching_rect" : [ 993.0, 38.0, 24.0, 24.0 ]
				}

			}
, 			{
				"box" : 				{
					"id" : "obj-5",
					"maxclass" : "newobj",
					"numinlets" : 2,
					"numoutlets" : 1,
					"outlettype" : [ "float" ],
					"patching_rect" : [ 229.0, 447.0, 81.0, 22.0 ],
					"text" : "snapshot~ 10"
				}

			}
, 			{
				"box" : 				{
					"fontface" : 0,
					"fontname" : "Arial",
					"fontsize" : 12.0,
					"id" : "obj-17",
					"maxclass" : "number~",
					"mode" : 2,
					"numinlets" : 2,
					"numoutlets" : 2,
					"outlettype" : [ "signal", "float" ],
					"patching_rect" : [ 63.0, 389.034058000000016, 85.0, 22.0 ],
					"sig" : 0.0
				}

			}
, 			{
				"box" : 				{
					"id" : "obj-58",
					"maxclass" : "newobj",
					"numinlets" : 2,
					"numoutlets" : 1,
					"outlettype" : [ "" ],
					"patching_rect" : [ 1190.8858642578125, 94.0, 51.0, 22.0 ],
					"text" : "pipe s 6"
				}

			}
, 			{
				"box" : 				{
					"color" : [ 1.0, 1.0, 1.0, 1.0 ],
					"id" : "obj-60",
					"maxclass" : "newobj",
					"numinlets" : 2,
					"numoutlets" : 1,
					"outlettype" : [ "float" ],
					"patching_rect" : [ 41.0, 309.683960000000013, 83.0, 22.0 ],
					"text" : "snapshot~ 10"
				}

			}
, 			{
				"box" : 				{
					"id" : "obj-57",
					"maxclass" : "newobj",
					"numinlets" : 2,
					"numoutlets" : 1,
					"outlettype" : [ "float" ],
					"patching_rect" : [ 551.535888999999997, 199.971557999999987, 83.0, 22.0 ],
					"text" : "snapshot~ 10"
				}

			}
, 			{
				"box" : 				{
					"comment" : "Preset store",
					"id" : "obj-72",
					"index" : 17,
					"maxclass" : "inlet",
					"numinlets" : 0,
					"numoutlets" : 1,
					"outlettype" : [ "" ],
					"patching_rect" : [ 1251.885864000000083, 58.0, 30.0, 30.0 ]
				}

			}
, 			{
				"box" : 				{
					"format" : 6,
					"id" : "obj-68",
					"maxclass" : "flonum",
					"numinlets" : 1,
					"numoutlets" : 2,
					"outlettype" : [ "", "bang" ],
					"parameter_enable" : 0,
					"patching_rect" : [ 402.0, 157.0, 57.0, 22.0 ],
					"varname" : "number[1]"
				}

			}
, 			{
				"box" : 				{
					"id" : "obj-54",
					"linecount" : 4,
					"maxclass" : "message",
					"numinlets" : 2,
					"numoutlets" : 1,
					"outlettype" : [ "" ],
					"patching_rect" : [ 309.3499755859375, 141.7340087890625, 30.0, 62.0 ],
					"text" : "21274.13339"
				}

			}
, 			{
				"box" : 				{
					"id" : "obj-85",
					"maxclass" : "message",
					"numinlets" : 2,
					"numoutlets" : 1,
					"outlettype" : [ "" ],
					"patching_rect" : [ 210.5, 206.9715576171875, 93.0, 22.0 ],
					"text" : "1.450674"
				}

			}
, 			{
				"box" : 				{
					"id" : "obj-81",
					"maxclass" : "newobj",
					"numinlets" : 2,
					"numoutlets" : 1,
					"outlettype" : [ "float" ],
					"patching_rect" : [ 363.349976000000026, 173.859008999999986, 29.5, 22.0 ],
					"text" : "/ 1."
				}

			}
, 			{
				"box" : 				{
					"id" : "obj-50",
					"maxclass" : "newobj",
					"numinlets" : 1,
					"numoutlets" : 3,
					"outlettype" : [ "", "", "" ],
					"patching_rect" : [ 777.285888999999997, 407.905640000000005, 79.0, 22.0 ],
					"restore" : [ 68476.158680914042634 ],
					"saved_object_attributes" : 					{
						"parameter_enable" : 0,
						"parameter_mappable" : 0
					}
,
					"text" : "pattr position",
					"varname" : "position"
				}

			}
, 			{
				"box" : 				{
					"comment" : "Preset recall",
					"id" : "obj-25",
					"index" : 16,
					"maxclass" : "inlet",
					"numinlets" : 0,
					"numoutlets" : 1,
					"outlettype" : [ "" ],
					"patching_rect" : [ 1190.885864000000083, 58.0, 30.0, 30.0 ]
				}

			}
, 			{
				"box" : 				{
					"id" : "obj-31",
					"linecount" : 2,
					"maxclass" : "message",
					"numinlets" : 2,
					"numoutlets" : 1,
					"outlettype" : [ "" ],
					"patching_rect" : [ 529.535888671875, 422.9056396484375, 41.0, 35.0 ],
					"text" : "0.006578"
				}

			}
, 			{
				"box" : 				{
					"annotation" : "",
					"comment" : "Playback position",
					"id" : "obj-44",
					"index" : 3,
					"maxclass" : "inlet",
					"numinlets" : 0,
					"numoutlets" : 1,
					"outlettype" : [ "float" ],
					"patching_rect" : [ 217.0, 58.0, 30.0, 30.0 ]
				}

			}
, 			{
				"box" : 				{
					"comment" : "Loop end",
					"id" : "obj-42",
					"index" : 15,
					"maxclass" : "inlet",
					"numinlets" : 0,
					"numoutlets" : 1,
					"outlettype" : [ "" ],
					"patching_rect" : [ 1127.885864000000083, 58.0, 30.0, 30.0 ]
				}

			}
, 			{
				"box" : 				{
					"comment" : "Loop start",
					"id" : "obj-37",
					"index" : 14,
					"maxclass" : "inlet",
					"numinlets" : 0,
					"numoutlets" : 1,
					"outlettype" : [ "" ],
					"patching_rect" : [ 1063.0, 58.0, 30.0, 30.0 ]
				}

			}
, 			{
				"box" : 				{
					"comment" : "Audiofile Length",
					"id" : "obj-33",
					"index" : 13,
					"maxclass" : "inlet",
					"numinlets" : 0,
					"numoutlets" : 1,
					"outlettype" : [ "" ],
					"patching_rect" : [ 948.0, 58.0, 30.0, 30.0 ]
				}

			}
, 			{
				"box" : 				{
					"color" : [ 1.0, 1.0, 1.0, 1.0 ],
					"fontname" : "Osaka",
					"fontsize" : 12.0,
					"id" : "obj-41",
					"maxclass" : "newobj",
					"numinlets" : 2,
					"numoutlets" : 1,
					"outlettype" : [ "signal" ],
					"patching_rect" : [ 24.635956, 212.859008999999986, 68.0, 22.0 ],
					"text" : "!/~ 1000."
				}

			}
, 			{
				"box" : 				{
					"annotation" : "",
					"comment" : "Playback pause",
					"id" : "obj-32",
					"index" : 2,
					"maxclass" : "inlet",
					"numinlets" : 0,
					"numoutlets" : 1,
					"outlettype" : [ "" ],
					"patching_rect" : [ 170.0, 58.0, 30.0, 30.0 ]
				}

			}
, 			{
				"box" : 				{
					"color" : [ 0.501961, 0.717647, 0.764706, 1.0 ],
					"id" : "obj-14",
					"maxclass" : "newobj",
					"numinlets" : 1,
					"numoutlets" : 1,
					"outlettype" : [ "" ],
					"patching_rect" : [ 843.785888999999997, 147.859008999999986, 72.0, 22.0 ],
					"text" : "loadmess 0"
				}

			}
, 			{
				"box" : 				{
					"color" : [ 0.501961, 0.717647, 0.764706, 1.0 ],
					"id" : "obj-20",
					"maxclass" : "newobj",
					"numinlets" : 2,
					"numoutlets" : 1,
					"outlettype" : [ "" ],
					"patching_rect" : [ 799.785888999999997, 177.234008999999986, 34.0, 22.0 ],
					"text" : "gate"
				}

			}
, 			{
				"box" : 				{
					"color" : [ 0.501961, 0.717647, 0.764706, 1.0 ],
					"id" : "obj-61",
					"maxclass" : "newobj",
					"numinlets" : 2,
					"numoutlets" : 1,
					"outlettype" : [ "int" ],
					"patching_rect" : [ 774.285888999999997, 216.359008999999986, 29.5, 22.0 ],
					"text" : "!- 1"
				}

			}
, 			{
				"box" : 				{
					"bgcolor" : [ 1.0, 1.0, 1.0, 1.0 ],
					"bgoncolor" : [ 1.0, 0.976471, 0.588235, 0.768627 ],
					"fontsize" : 16.0,
					"id" : "obj-82",
					"legacytextcolor" : 1,
					"maxclass" : "textbutton",
					"mode" : 1,
					"numinlets" : 1,
					"numoutlets" : 3,
					"outlettype" : [ "", "", "int" ],
					"outputmode" : 0,
					"parameter_enable" : 0,
					"patching_rect" : [ 1176.821777000000111, 134.859008999999986, 92.0, 28.5 ],
					"text" : "LOOP",
					"textcolor" : [ 0.0, 0.0, 0.0, 1.0 ],
					"texton" : "LOOP",
					"textoncolor" : [ 0.0, 0.0, 0.0, 1.0 ],
					"textovercolor" : [ 0.0, 0.0, 0.0, 1.0 ],
					"usebgoncolor" : 1,
					"usetextovercolor" : 1
				}

			}
, 			{
				"box" : 				{
					"color" : [ 0.082353, 0.431373, 0.411765, 1.0 ],
					"id" : "obj-187",
					"maxclass" : "newobj",
					"numinlets" : 6,
					"numoutlets" : 1,
					"outlettype" : [ "" ],
					"patching_rect" : [ 551.535888999999997, 316.659058000000016, 105.0, 22.0 ],
					"text" : "z.scale -1. 1. 0. 1."
				}

			}
, 			{
				"box" : 				{
					"id" : "obj-291",
					"int" : 1,
					"maxclass" : "gswitch2",
					"numinlets" : 2,
					"numoutlets" : 2,
					"outlettype" : [ "", "" ],
					"parameter_enable" : 0,
					"patching_rect" : [ 782.5, 350.808960000000013, 39.0, 32.0 ]
				}

			}
, 			{
				"box" : 				{
					"color" : [ 0.082353, 0.431373, 0.411765, 1.0 ],
					"id" : "obj-275",
					"maxclass" : "newobj",
					"numinlets" : 2,
					"numoutlets" : 1,
					"outlettype" : [ "" ],
					"patching_rect" : [ 551.535888999999997, 389.034058000000016, 34.0, 22.0 ],
					"text" : "gate"
				}

			}
, 			{
				"box" : 				{
					"bgcolor" : [ 1.0, 1.0, 1.0, 1.0 ],
					"bgoncolor" : [ 1.0, 0.976471, 0.588235, 0.768627 ],
					"fontsize" : 16.0,
					"id" : "obj-268",
					"legacytextcolor" : 1,
					"maxclass" : "textbutton",
					"mode" : 1,
					"numinlets" : 1,
					"numoutlets" : 3,
					"outlettype" : [ "", "", "int" ],
					"outputmode" : 0,
					"parameter_enable" : 0,
					"patching_rect" : [ 602.435913000000028, 371.659058000000016, 92.0, 28.5 ],
					"text" : "LFOOP",
					"textcolor" : [ 0.0, 0.0, 0.0, 1.0 ],
					"texton" : "LFOOP",
					"textoncolor" : [ 0.0, 0.0, 0.0, 1.0 ],
					"textovercolor" : [ 0.0, 0.0, 0.0, 1.0 ],
					"usebgoncolor" : 1,
					"usetextovercolor" : 1
				}

			}
, 			{
				"box" : 				{
					"id" : "obj-261",
					"linecount" : 2,
					"maxclass" : "comment",
					"numinlets" : 1,
					"numoutlets" : 0,
					"patching_rect" : [ 620.035888999999997, 424.905640000000005, 99.0, 33.0 ],
					"text" : "LFO THROUGH LOOP SECTION"
				}

			}
, 			{
				"box" : 				{
					"id" : "obj-260",
					"maxclass" : "comment",
					"numinlets" : 1,
					"numoutlets" : 0,
					"patching_rect" : [ 953.285888999999997, 168.734008999999986, 63.0, 20.0 ],
					"text" : "LOOPER"
				}

			}
, 			{
				"box" : 				{
					"color" : [ 0.082353, 0.431373, 0.411765, 1.0 ],
					"id" : "obj-266",
					"maxclass" : "newobj",
					"numinlets" : 2,
					"numoutlets" : 1,
					"outlettype" : [ "float" ],
					"patching_rect" : [ 551.535888999999997, 354.846558000000016, 29.5, 22.0 ],
					"text" : "/ 1."
				}

			}
, 			{
				"box" : 				{
					"format" : 6,
					"id" : "obj-253",
					"maxclass" : "flonum",
					"numinlets" : 1,
					"numoutlets" : 2,
					"outlettype" : [ "", "bang" ],
					"parameter_enable" : 0,
					"patching_rect" : [ 551.535888999999997, 276.018065999999976, 65.0, 22.0 ]
				}

			}
, 			{
				"box" : 				{
					"color" : [ 0.031373, 0.541176, 0.498039, 1.0 ],
					"id" : "obj-246",
					"maxclass" : "newobj",
					"numinlets" : 2,
					"numoutlets" : 1,
					"outlettype" : [ "float" ],
					"patching_rect" : [ 551.535888999999997, 252.018066000000005, 29.5, 22.0 ],
					"text" : "* 1."
				}

			}
, 			{
				"box" : 				{
					"color" : [ 0.501961, 0.717647, 0.764706, 1.0 ],
					"id" : "obj-201",
					"maxclass" : "gswitch",
					"numinlets" : 3,
					"numoutlets" : 1,
					"outlettype" : [ "" ],
					"parameter_enable" : 0,
					"patching_rect" : [ 950.5, 269.734009000000015, 41.0, 32.0 ]
				}

			}
, 			{
				"box" : 				{
					"color" : [ 0.501961, 0.717647, 0.764706, 1.0 ],
					"id" : "obj-168",
					"maxclass" : "newobj",
					"numinlets" : 2,
					"numoutlets" : 1,
					"outlettype" : [ "" ],
					"patching_rect" : [ 1032.385864000000083, 245.859008999999986, 81.0, 22.0 ],
					"text" : "expr $f1 / $f2"
				}

			}
, 			{
				"box" : 				{
					"color" : [ 0.501961, 0.717647, 0.764706, 1.0 ],
					"id" : "obj-106",
					"linecount" : 2,
					"maxclass" : "newobj",
					"numinlets" : 3,
					"numoutlets" : 1,
					"outlettype" : [ "" ],
					"patching_rect" : [ 1032.385864000000083, 199.971557999999987, 185.614136000000002, 35.0 ],
					"text" : "if (($i1/10) - ($i2/10) < 1) && (($i1/10) - ($i2/10) > -4) then $f3"
				}

			}
, 			{
				"box" : 				{
					"color" : [ 0.501961, 0.717647, 0.764706, 1.0 ],
					"id" : "obj-15",
					"maxclass" : "newobj",
					"numinlets" : 1,
					"numoutlets" : 1,
					"outlettype" : [ "" ],
					"patching_rect" : [ 1019.88586399999997, 141.734008999999986, 136.0, 22.0 ],
					"text" : "if $f1 >= 0 then 0 else 1"
				}

			}
, 			{
				"box" : 				{
					"color" : [ 0.501961, 0.717647, 0.764706, 1.0 ],
					"id" : "obj-170",
					"maxclass" : "newobj",
					"numinlets" : 1,
					"numoutlets" : 2,
					"outlettype" : [ "bang", "int" ],
					"patching_rect" : [ 849.285888999999997, 177.234008999999986, 61.0, 22.0 ],
					"text" : "trigger b i"
				}

			}
, 			{
				"box" : 				{
					"color" : [ 0.501961, 0.717647, 0.764706, 1.0 ],
					"id" : "obj-281",
					"linecount" : 2,
					"maxclass" : "newobj",
					"numinlets" : 3,
					"numoutlets" : 1,
					"outlettype" : [ "" ],
					"patching_rect" : [ 814.785888999999997, 216.359008999999986, 188.0, 35.0 ],
					"text" : "if (($i1/10) - ($i2/10) < 1) && (($i1/10) - ($i2/10) > -4) then $f3"
				}

			}
, 			{
				"box" : 				{
					"color" : [ 0.501961, 0.717647, 0.764706, 1.0 ],
					"id" : "obj-278",
					"maxclass" : "newobj",
					"numinlets" : 2,
					"numoutlets" : 1,
					"outlettype" : [ "" ],
					"patching_rect" : [ 839.285888999999997, 280.683960000000013, 81.0, 22.0 ],
					"text" : "expr $f1 / $f2"
				}

			}
, 			{
				"box" : 				{
					"fontname" : "Arial",
					"fontsize" : 12.0,
					"format" : 6,
					"id" : "obj-184",
					"maxclass" : "flonum",
					"numinlets" : 1,
					"numoutlets" : 2,
					"outlettype" : [ "", "bang" ],
					"parameter_enable" : 0,
					"patching_rect" : [ 158.5, 206.971557999999987, 50.0, 22.0 ]
				}

			}
, 			{
				"box" : 				{
					"color" : [ 1.0, 1.0, 1.0, 1.0 ],
					"fontname" : "Arial",
					"fontsize" : 12.0,
					"id" : "obj-118",
					"maxclass" : "newobj",
					"numinlets" : 1,
					"numoutlets" : 1,
					"outlettype" : [ "" ],
					"patching_rect" : [ 176.0, 173.859008999999986, 107.0, 22.0 ],
					"text" : "if $f1 != 0 then $f1"
				}

			}
, 			{
				"box" : 				{
					"color" : [ 1.0, 1.0, 1.0, 1.0 ],
					"fontname" : "Arial",
					"fontsize" : 12.0,
					"id" : "obj-115",
					"maxclass" : "newobj",
					"numinlets" : 3,
					"numoutlets" : 3,
					"outlettype" : [ "bang", "bang", "" ],
					"patching_rect" : [ 152.0, 141.734008999999986, 62.0, 22.0 ],
					"text" : "select 0 1"
				}

			}
, 			{
				"box" : 				{
					"fontname" : "Arial",
					"fontsize" : 12.0,
					"id" : "obj-97",
					"maxclass" : "newobj",
					"numinlets" : 2,
					"numoutlets" : 1,
					"outlettype" : [ "float" ],
					"patching_rect" : [ 395.849976000000026, 445.734009000000015, 31.0, 22.0 ],
					"text" : "+ 0."
				}

			}
, 			{
				"box" : 				{
					"color" : [ 1.0, 0.819608, 0.0, 0.807843 ],
					"fontname" : "Arial",
					"fontsize" : 12.0,
					"id" : "obj-94",
					"maxclass" : "newobj",
					"numinlets" : 1,
					"numoutlets" : 1,
					"outlettype" : [ "signal" ],
					"patching_rect" : [ 447.774963000000014, 235.234008999999986, 46.0, 22.0 ],
					"text" : "noise~"
				}

			}
, 			{
				"box" : 				{
					"fontname" : "Arial",
					"fontsize" : 12.0,
					"format" : 6,
					"id" : "obj-87",
					"maxclass" : "flonum",
					"numinlets" : 1,
					"numoutlets" : 2,
					"outlettype" : [ "", "bang" ],
					"parameter_enable" : 0,
					"patching_rect" : [ 395.849976000000026, 396.892455999999981, 120.0, 22.0 ],
					"varname" : "sampler[1]"
				}

			}
, 			{
				"box" : 				{
					"fontface" : 0,
					"fontname" : "Arial",
					"fontsize" : 12.0,
					"id" : "obj-70",
					"maxclass" : "newobj",
					"numinlets" : 2,
					"numoutlets" : 1,
					"outlettype" : [ "float" ],
					"patching_rect" : [ 395.849976000000026, 357.171509000000015, 83.0, 22.0 ],
					"text" : "snapshot~ 10"
				}

			}
, 			{
				"box" : 				{
					"fontname" : "Arial",
					"fontsize" : 12.0,
					"format" : 6,
					"id" : "obj-55",
					"maxclass" : "flonum",
					"numinlets" : 1,
					"numoutlets" : 2,
					"outlettype" : [ "", "bang" ],
					"parameter_enable" : 0,
					"patching_rect" : [ 183.5, 241.8590087890625, 74.0, 22.0 ],
					"varname" : "number"
				}

			}
, 			{
				"box" : 				{
					"color" : [ 1.0, 0.823529, 0.0, 0.807843 ],
					"fontface" : 0,
					"fontname" : "Arial",
					"fontsize" : 12.0,
					"id" : "obj-80",
					"maxclass" : "newobj",
					"numinlets" : 2,
					"numoutlets" : 1,
					"outlettype" : [ "signal" ],
					"patching_rect" : [ 447.774963000000014, 274.734009000000015, 32.0, 22.0 ],
					"text" : "*~ 5"
				}

			}
, 			{
				"box" : 				{
					"fontname" : "Arial",
					"fontsize" : 12.0,
					"id" : "obj-102",
					"maxclass" : "newobj",
					"numinlets" : 2,
					"numoutlets" : 1,
					"outlettype" : [ "signal" ],
					"patching_rect" : [ 439.599976000000026, 319.952759000000015, 32.5, 22.0 ],
					"text" : "+~"
				}

			}
, 			{
				"box" : 				{
					"color" : [ 1.0, 1.0, 1.0, 1.0 ],
					"fontname" : "Osaka",
					"fontsize" : 12.0,
					"id" : "obj-16",
					"maxclass" : "newobj",
					"numinlets" : 2,
					"numoutlets" : 1,
					"outlettype" : [ "float" ],
					"patching_rect" : [ 87.0, 145.859008999999986, 48.0, 22.0 ],
					"text" : "/ 100."
				}

			}
, 			{
				"box" : 				{
					"color" : [ 1.0, 1.0, 1.0, 1.0 ],
					"fontname" : "Osaka",
					"fontsize" : 12.0,
					"id" : "obj-35",
					"maxclass" : "newobj",
					"numinlets" : 1,
					"numoutlets" : 1,
					"outlettype" : [ "signal" ],
					"patching_rect" : [ 11.5, 134.859008999999986, 35.0, 22.0 ],
					"text" : "sig~"
				}

			}
, 			{
				"box" : 				{
					"fontname" : "Osaka",
					"fontsize" : 12.0,
					"format" : 6,
					"id" : "obj-36",
					"maxclass" : "flonum",
					"numinlets" : 1,
					"numoutlets" : 2,
					"outlettype" : [ "", "bang" ],
					"parameter_enable" : 0,
					"patching_rect" : [ 87.0, 173.859008999999986, 50.0, 22.0 ]
				}

			}
, 			{
				"box" : 				{
					"color" : [ 1.0, 1.0, 1.0, 1.0 ],
					"fontname" : "Osaka",
					"fontsize" : 12.0,
					"id" : "obj-38",
					"maxclass" : "newobj",
					"numinlets" : 2,
					"numoutlets" : 1,
					"outlettype" : [ "signal" ],
					"patching_rect" : [ 57.75, 261.859009000000015, 49.5, 22.0 ],
					"text" : "*~"
				}

			}
, 			{
				"box" : 				{
					"color" : [ 1.0, 1.0, 1.0, 1.0 ],
					"fontname" : "Osaka",
					"fontsize" : 12.0,
					"id" : "obj-39",
					"maxclass" : "newobj",
					"numinlets" : 2,
					"numoutlets" : 1,
					"outlettype" : [ "signal" ],
					"patching_rect" : [ 107.25, 212.859008999999986, 40.0, 22.0 ],
					"text" : "*~ 1."
				}

			}
, 			{
				"box" : 				{
					"color" : [ 1.0, 1.0, 1.0, 1.0 ],
					"fontname" : "Osaka",
					"fontsize" : 12.0,
					"id" : "obj-43",
					"maxclass" : "newobj",
					"numinlets" : 2,
					"numoutlets" : 1,
					"outlettype" : [ "signal" ],
					"patching_rect" : [ 107.25, 241.859008999999986, 57.0, 22.0 ],
					"text" : "phasor~"
				}

			}
, 			{
				"box" : 				{
					"bgcolor" : [ 0.823529, 0.0, 0.0, 0.901961 ],
					"bgfillcolor_angle" : 270.0,
					"bgfillcolor_autogradient" : 0.79,
					"bgfillcolor_color" : [ 0.290196, 0.309804, 0.301961, 1.0 ],
					"bgfillcolor_color1" : [ 0.823529, 0.0, 0.0, 0.901961 ],
					"bgfillcolor_color2" : [ 0.685, 0.685, 0.685, 1.0 ],
					"bgfillcolor_proportion" : 0.39,
					"bgfillcolor_type" : "gradient",
					"fontname" : "Osaka",
					"fontsize" : 12.0,
					"gradient" : 0,
					"id" : "obj-45",
					"maxclass" : "message",
					"numinlets" : 2,
					"numoutlets" : 1,
					"outlettype" : [ "" ],
					"patching_rect" : [ 141.5, 293.984009000000015, 64.0, 22.0 ],
					"text" : "voices $1",
					"textcolor" : [ 1.0, 1.0, 1.0, 1.0 ]
				}

			}
, 			{
				"box" : 				{
					"comment" : "Polyphony voices",
					"id" : "obj-12",
					"index" : 12,
					"maxclass" : "inlet",
					"numinlets" : 0,
					"numoutlets" : 1,
					"outlettype" : [ "" ],
					"patching_rect" : [ 898.785888999999997, 58.0, 30.0, 30.0 ]
				}

			}
, 			{
				"box" : 				{
					"comment" : "Toggle Lfoop",
					"id" : "obj-11",
					"index" : 11,
					"maxclass" : "inlet",
					"numinlets" : 0,
					"numoutlets" : 1,
					"outlettype" : [ "" ],
					"patching_rect" : [ 831.0, 58.0, 30.0, 30.0 ]
				}

			}
, 			{
				"box" : 				{
					"comment" : "",
					"id" : "obj-29",
					"index" : 3,
					"maxclass" : "outlet",
					"numinlets" : 1,
					"numoutlets" : 0,
					"patching_rect" : [ 253.0, 549.0, 30.0, 30.0 ]
				}

			}
, 			{
				"box" : 				{
					"comment" : "Playback position",
					"id" : "obj-27",
					"index" : 7,
					"maxclass" : "outlet",
					"numinlets" : 1,
					"numoutlets" : 0,
					"patching_rect" : [ 740.0, 549.0, 30.0, 30.0 ]
				}

			}
, 			{
				"box" : 				{
					"comment" : "Speed position",
					"id" : "obj-26",
					"index" : 6,
					"maxclass" : "outlet",
					"numinlets" : 1,
					"numoutlets" : 0,
					"patching_rect" : [ 693.63586399999997, 549.0, 30.0, 30.0 ]
				}

			}
, 			{
				"box" : 				{
					"comment" : "Position end",
					"id" : "obj-24",
					"index" : 5,
					"maxclass" : "outlet",
					"numinlets" : 1,
					"numoutlets" : 0,
					"patching_rect" : [ 642.63586399999997, 549.0, 30.0, 30.0 ]
				}

			}
, 			{
				"box" : 				{
					"comment" : "Position start",
					"id" : "obj-23",
					"index" : 4,
					"maxclass" : "outlet",
					"numinlets" : 1,
					"numoutlets" : 0,
					"patching_rect" : [ 589.035888999999997, 549.0, 30.0, 30.0 ]
				}

			}
, 			{
				"box" : 				{
					"comment" : "Output R",
					"id" : "obj-22",
					"index" : 2,
					"maxclass" : "outlet",
					"numinlets" : 1,
					"numoutlets" : 0,
					"patching_rect" : [ 205.5, 549.0, 30.0, 30.0 ]
				}

			}
, 			{
				"box" : 				{
					"comment" : "Output L",
					"id" : "obj-21",
					"index" : 1,
					"maxclass" : "outlet",
					"numinlets" : 1,
					"numoutlets" : 0,
					"patching_rect" : [ 158.5, 549.0, 30.0, 30.0 ]
				}

			}
, 			{
				"box" : 				{
					"comment" : "Toggle Loop",
					"id" : "obj-10",
					"index" : 10,
					"maxclass" : "inlet",
					"numinlets" : 0,
					"numoutlets" : 1,
					"outlettype" : [ "" ],
					"patching_rect" : [ 746.0, 58.0, 30.0, 30.0 ]
				}

			}
, 			{
				"box" : 				{
					"comment" : "LFO Exponent",
					"id" : "obj-9",
					"index" : 9,
					"maxclass" : "inlet",
					"numinlets" : 0,
					"numoutlets" : 1,
					"outlettype" : [ "" ],
					"patching_rect" : [ 689.035888999999997, 58.0, 30.0, 30.0 ]
				}

			}
, 			{
				"box" : 				{
					"comment" : "LFO Depth",
					"id" : "obj-8",
					"index" : 8,
					"maxclass" : "inlet",
					"numinlets" : 0,
					"numoutlets" : 1,
					"outlettype" : [ "" ],
					"patching_rect" : [ 633.435913000000028, 58.0, 30.0, 30.0 ]
				}

			}
, 			{
				"box" : 				{
					"comment" : "LFOOP Signal",
					"id" : "obj-7",
					"index" : 7,
					"maxclass" : "inlet",
					"numinlets" : 0,
					"numoutlets" : 1,
					"outlettype" : [ "signal" ],
					"patching_rect" : [ 551.535888999999997, 58.0, 30.0, 30.0 ]
				}

			}
, 			{
				"box" : 				{
					"annotation" : "",
					"comment" : "Grain offset",
					"id" : "obj-4",
					"index" : 6,
					"maxclass" : "inlet",
					"numinlets" : 0,
					"numoutlets" : 1,
					"outlettype" : [ "" ],
					"patching_rect" : [ 388.774963000000014, 58.0, 30.0, 30.0 ]
				}

			}
, 			{
				"box" : 				{
					"comment" : "Pitch",
					"id" : "obj-3",
					"index" : 5,
					"maxclass" : "inlet",
					"numinlets" : 0,
					"numoutlets" : 1,
					"outlettype" : [ "" ],
					"patching_rect" : [ 331.349976000000026, 58.0, 30.0, 30.0 ]
				}

			}
, 			{
				"box" : 				{
					"comment" : "Grain length",
					"id" : "obj-2",
					"index" : 4,
					"maxclass" : "inlet",
					"numinlets" : 0,
					"numoutlets" : 1,
					"outlettype" : [ "float" ],
					"patching_rect" : [ 272.0, 58.0, 30.0, 30.0 ]
				}

			}
, 			{
				"box" : 				{
					"annotation" : "",
					"comment" : "Playback speed",
					"id" : "obj-1",
					"index" : 1,
					"maxclass" : "inlet",
					"numinlets" : 0,
					"numoutlets" : 1,
					"outlettype" : [ "" ],
					"patching_rect" : [ 107.0, 58.0, 30.0, 30.0 ]
				}

			}
 ],
		"lines" : [ 			{
				"patchline" : 				{
					"color" : [ 1.0, 1.0, 1.0, 1.0 ],
					"destination" : [ "obj-118", 0 ],
					"midpoints" : [ 116.5, 132.0, 141.0, 132.0, 141.0, 174.0, 185.5, 174.0 ],
					"order" : 0,
					"source" : [ "obj-1", 0 ]
				}

			}
, 			{
				"patchline" : 				{
					"color" : [ 1.0, 1.0, 1.0, 1.0 ],
					"destination" : [ "obj-16", 0 ],
					"midpoints" : [ 116.5, 132.0, 96.5, 132.0 ],
					"order" : 1,
					"source" : [ "obj-1", 0 ]
				}

			}
, 			{
				"patchline" : 				{
					"color" : [ 0.501961, 0.717647, 0.764706, 1.0 ],
					"destination" : [ "obj-82", 0 ],
					"midpoints" : [ 755.5, 123.0, 1186.321777000000111, 123.0 ],
					"source" : [ "obj-10", 0 ]
				}

			}
, 			{
				"patchline" : 				{
					"destination" : [ "obj-5", 0 ],
					"midpoints" : [ 449.099976000000026, 342.0, 238.5, 342.0 ],
					"order" : 1,
					"source" : [ "obj-102", 0 ]
				}

			}
, 			{
				"patchline" : 				{
					"destination" : [ "obj-70", 0 ],
					"midpoints" : [ 449.099976000000026, 336.0, 405.349976000000026, 336.0 ],
					"order" : 0,
					"source" : [ "obj-102", 0 ]
				}

			}
, 			{
				"patchline" : 				{
					"color" : [ 0.501961, 0.717647, 0.764706, 1.0 ],
					"destination" : [ "obj-168", 0 ],
					"midpoints" : [ 1041.885864000000083, 234.0, 1041.885864000000083, 234.0 ],
					"source" : [ "obj-106", 0 ]
				}

			}
, 			{
				"patchline" : 				{
					"color" : [ 0.082353, 0.431373, 0.411765, 1.0 ],
					"destination" : [ "obj-268", 0 ],
					"midpoints" : [ 840.5, 123.0, 696.0, 123.0, 696.0, 327.0, 657.0, 327.0, 657.0, 339.0, 651.0, 339.0, 651.0, 369.0, 611.935913000000028, 369.0 ],
					"source" : [ "obj-11", 0 ]
				}

			}
, 			{
				"patchline" : 				{
					"color" : [ 1.0, 1.0, 1.0, 1.0 ],
					"destination" : [ "obj-184", 0 ],
					"midpoints" : [ 161.5, 204.0, 168.0, 204.0 ],
					"source" : [ "obj-115", 0 ]
				}

			}
, 			{
				"patchline" : 				{
					"destination" : [ "obj-184", 0 ],
					"midpoints" : [ 185.5, 204.0, 168.0, 204.0 ],
					"source" : [ "obj-118", 0 ]
				}

			}
, 			{
				"patchline" : 				{
					"color" : [ 1.0, 0.0, 0.0, 0.901961 ],
					"destination" : [ "obj-45", 0 ],
					"midpoints" : [ 908.285888999999997, 125.0, 285.0, 125.0, 285.0, 279.0, 151.0, 279.0 ],
					"source" : [ "obj-12", 0 ]
				}

			}
, 			{
				"patchline" : 				{
					"color" : [ 0.501961, 0.717647, 0.764706, 1.0 ],
					"destination" : [ "obj-291", 0 ],
					"midpoints" : [ 853.285888999999997, 171.0, 760.0, 171.0, 760.0, 246.0, 792.0, 246.0 ],
					"source" : [ "obj-14", 0 ]
				}

			}
, 			{
				"patchline" : 				{
					"color" : [ 0.501961, 0.717647, 0.764706, 1.0 ],
					"destination" : [ "obj-201", 0 ],
					"midpoints" : [ 1029.385863999999856, 198.0, 1008.0, 198.0, 1008.0, 264.0, 960.0, 264.0 ],
					"source" : [ "obj-15", 0 ]
				}

			}
, 			{
				"patchline" : 				{
					"color" : [ 1.0, 1.0, 1.0, 1.0 ],
					"destination" : [ "obj-36", 0 ],
					"midpoints" : [ 96.5, 168.0, 96.5, 168.0 ],
					"source" : [ "obj-16", 0 ]
				}

			}
, 			{
				"patchline" : 				{
					"color" : [ 0.501961, 0.717647, 0.764706, 1.0 ],
					"destination" : [ "obj-201", 2 ],
					"midpoints" : [ 1041.885864000000083, 270.0, 1002.0, 270.0, 1002.0, 264.0, 982.0, 264.0 ],
					"source" : [ "obj-168", 0 ]
				}

			}
, 			{
				"patchline" : 				{
					"color" : [ 0.501961, 0.717647, 0.764706, 1.0 ],
					"destination" : [ "obj-281", 0 ],
					"midpoints" : [ 900.785888999999997, 198.0, 835.0, 198.0, 835.0, 207.0, 824.285888999999997, 207.0 ],
					"source" : [ "obj-170", 1 ]
				}

			}
, 			{
				"patchline" : 				{
					"color" : [ 0.501961, 0.717647, 0.764706, 1.0 ],
					"destination" : [ "obj-281", 0 ],
					"midpoints" : [ 858.785888999999997, 198.0, 835.0, 198.0, 835.0, 207.0, 824.285888999999997, 207.0 ],
					"source" : [ "obj-170", 0 ]
				}

			}
, 			{
				"patchline" : 				{
					"color" : [ 1.0, 1.0, 1.0, 1.0 ],
					"destination" : [ "obj-26", 0 ],
					"midpoints" : [ 168.0, 279.0, 381.0, 279.0, 381.0, 534.0, 703.13586399999997, 534.0 ],
					"source" : [ "obj-184", 0 ]
				}

			}
, 			{
				"patchline" : 				{
					"color" : [ 0.082353, 0.431373, 0.411765, 1.0 ],
					"destination" : [ "obj-266", 0 ],
					"midpoints" : [ 561.035888999999997, 339.0, 561.035888999999997, 339.0 ],
					"source" : [ "obj-187", 0 ]
				}

			}
, 			{
				"patchline" : 				{
					"destination" : [ "obj-21", 0 ],
					"midpoints" : [ 281.5, 159.0, 294.0, 159.0, 294.0, 523.0, 168.0, 523.0 ],
					"order" : 1,
					"source" : [ "obj-2", 0 ]
				}

			}
, 			{
				"patchline" : 				{
					"color" : [ 0.047059, 0.913725, 0.913725, 1.0 ],
					"destination" : [ "obj-97", 1 ],
					"midpoints" : [ 281.5, 159.0, 294.0, 159.0, 294.0, 201.0, 348.0, 201.0, 348.0, 432.0, 417.349976000000026, 432.0 ],
					"order" : 0,
					"source" : [ "obj-2", 0 ]
				}

			}
, 			{
				"patchline" : 				{
					"color" : [ 0.501961, 0.717647, 0.764706, 1.0 ],
					"destination" : [ "obj-291", 0 ],
					"midpoints" : [ 809.285888999999997, 201.0, 760.0, 201.0, 760.0, 246.0, 792.0, 246.0 ],
					"source" : [ "obj-20", 0 ]
				}

			}
, 			{
				"patchline" : 				{
					"color" : [ 0.501961, 0.717647, 0.764706, 1.0 ],
					"destination" : [ "obj-291", 1 ],
					"midpoints" : [ 960.0, 311.0, 817.0, 311.0, 817.0, 246.0, 812.0, 246.0 ],
					"source" : [ "obj-201", 0 ]
				}

			}
, 			{
				"patchline" : 				{
					"color" : [ 0.082353, 0.431373, 0.411765, 1.0 ],
					"destination" : [ "obj-253", 0 ],
					"midpoints" : [ 561.035888999999997, 264.0, 561.035888999999997, 264.0 ],
					"source" : [ "obj-246", 0 ]
				}

			}
, 			{
				"patchline" : 				{
					"destination" : [ "obj-13", 0 ],
					"order" : 1,
					"source" : [ "obj-25", 0 ]
				}

			}
, 			{
				"patchline" : 				{
					"destination" : [ "obj-58", 0 ],
					"order" : 0,
					"source" : [ "obj-25", 0 ]
				}

			}
, 			{
				"patchline" : 				{
					"color" : [ 0.082353, 0.431373, 0.411765, 1.0 ],
					"destination" : [ "obj-187", 0 ],
					"midpoints" : [ 561.035888999999997, 300.0, 561.035888999999997, 300.0 ],
					"source" : [ "obj-253", 0 ]
				}

			}
, 			{
				"patchline" : 				{
					"color" : [ 0.082353, 0.431373, 0.411765, 1.0 ],
					"destination" : [ "obj-275", 1 ],
					"midpoints" : [ 561.035888999999997, 384.0, 576.035888999999997, 384.0 ],
					"source" : [ "obj-266", 0 ]
				}

			}
, 			{
				"patchline" : 				{
					"color" : [ 0.501961, 0.717647, 0.764706, 1.0 ],
					"destination" : [ "obj-20", 1 ],
					"midpoints" : [ 611.935913000000028, 408.0, 720.0, 408.0, 720.0, 309.0, 696.0, 309.0, 696.0, 124.0, 824.285888999999997, 124.0 ],
					"order" : 0,
					"source" : [ "obj-268", 0 ]
				}

			}
, 			{
				"patchline" : 				{
					"color" : [ 0.082353, 0.431373, 0.411765, 1.0 ],
					"destination" : [ "obj-275", 0 ],
					"midpoints" : [ 611.935913000000028, 408.0, 585.0, 408.0, 585.0, 384.0, 561.035888999999997, 384.0 ],
					"order" : 1,
					"source" : [ "obj-268", 0 ]
				}

			}
, 			{
				"patchline" : 				{
					"destination" : [ "obj-31", 1 ],
					"order" : 0,
					"source" : [ "obj-275", 0 ]
				}

			}
, 			{
				"patchline" : 				{
					"color" : [ 1.0, 1.0, 1.0, 1.0 ],
					"destination" : [ "obj-55", 0 ],
					"midpoints" : [ 561.035888999999997, 414.0, 519.0, 414.0, 519.0, 207.0, 285.0, 207.0, 285.0, 244.0, 193.0, 244.0 ],
					"order" : 1,
					"source" : [ "obj-275", 0 ]
				}

			}
, 			{
				"patchline" : 				{
					"color" : [ 0.501961, 0.717647, 0.764706, 1.0 ],
					"destination" : [ "obj-201", 1 ],
					"midpoints" : [ 848.785888999999997, 313.875, 935.5, 313.875, 935.5, 262.875, 971.0, 262.875 ],
					"source" : [ "obj-278", 0 ]
				}

			}
, 			{
				"patchline" : 				{
					"color" : [ 0.501961, 0.717647, 0.764706, 1.0 ],
					"destination" : [ "obj-278", 0 ],
					"midpoints" : [ 824.285888999999997, 267.0, 848.785888999999997, 267.0 ],
					"source" : [ "obj-281", 0 ]
				}

			}
, 			{
				"patchline" : 				{
					"color" : [ 0.501961, 0.717647, 0.764706, 1.0 ],
					"destination" : [ "obj-55", 0 ],
					"midpoints" : [ 792.0, 384.0, 768.0, 384.0, 768.0, 294.0, 777.0, 294.0, 777.0, 246.0, 591.0, 246.0, 591.0, 237.0, 504.0, 237.0, 504.0, 207.0, 285.0, 207.0, 285.0, 247.0, 193.0, 247.0 ],
					"source" : [ "obj-291", 0 ]
				}

			}
, 			{
				"patchline" : 				{
					"destination" : [ "obj-22", 0 ],
					"midpoints" : [ 340.849976000000026, 105.0, 294.0, 105.0, 294.0, 534.0, 215.0, 534.0 ],
					"source" : [ "obj-3", 0 ]
				}

			}
, 			{
				"patchline" : 				{
					"color" : [ 1.0, 1.0, 1.0, 1.0 ],
					"destination" : [ "obj-115", 0 ],
					"midpoints" : [ 179.5, 135.0, 161.5, 135.0 ],
					"source" : [ "obj-32", 0 ]
				}

			}
, 			{
				"patchline" : 				{
					"color" : [ 0.0, 0.0, 0.0, 1.0 ],
					"destination" : [ "obj-168", 1 ],
					"midpoints" : [ 957.5, 153.0, 939.0, 153.0, 939.0, 198.0, 1029.0, 198.0, 1029.0, 237.0, 1103.885864000000083, 237.0 ],
					"order" : 0,
					"source" : [ "obj-33", 0 ]
				}

			}
, 			{
				"patchline" : 				{
					"color" : [ 0.0, 0.0, 0.0, 1.0 ],
					"destination" : [ "obj-266", 1 ],
					"midpoints" : [ 957.5, 123.0, 666.0, 123.0, 666.0, 348.0, 571.535888999999997, 348.0 ],
					"order" : 2,
					"source" : [ "obj-33", 0 ]
				}

			}
, 			{
				"patchline" : 				{
					"color" : [ 0.0, 0.0, 0.0, 1.0 ],
					"destination" : [ "obj-278", 1 ],
					"midpoints" : [ 957.5, 153.0, 939.0, 153.0, 939.0, 201.0, 1008.0, 201.0, 1008.0, 264.0, 910.785888999999997, 264.0 ],
					"order" : 1,
					"source" : [ "obj-33", 0 ]
				}

			}
, 			{
				"patchline" : 				{
					"color" : [ 0.0, 0.0, 0.0, 1.0 ],
					"destination" : [ "obj-35", 0 ],
					"midpoints" : [ 957.5, 125.0, 21.0, 125.0 ],
					"order" : 4,
					"source" : [ "obj-33", 0 ]
				}

			}
, 			{
				"patchline" : 				{
					"destination" : [ "obj-81", 1 ],
					"midpoints" : [ 957.5, 125.0, 383.349976000000026, 125.0 ],
					"order" : 3,
					"source" : [ "obj-33", 0 ]
				}

			}
, 			{
				"patchline" : 				{
					"color" : [ 1.0, 1.0, 1.0, 1.0 ],
					"destination" : [ "obj-38", 0 ],
					"midpoints" : [ 21.0, 246.0, 67.25, 246.0 ],
					"order" : 0,
					"source" : [ "obj-35", 0 ]
				}

			}
, 			{
				"patchline" : 				{
					"destination" : [ "obj-41", 0 ],
					"order" : 1,
					"source" : [ "obj-35", 0 ]
				}

			}
, 			{
				"patchline" : 				{
					"color" : [ 1.0, 1.0, 1.0, 1.0 ],
					"destination" : [ "obj-15", 0 ],
					"midpoints" : [ 96.5, 204.0, 72.0, 204.0, 72.0, 123.0, 1029.385863999999856, 123.0 ],
					"order" : 0,
					"source" : [ "obj-36", 0 ]
				}

			}
, 			{
				"patchline" : 				{
					"color" : [ 1.0, 1.0, 1.0, 1.0 ],
					"destination" : [ "obj-39", 1 ],
					"midpoints" : [ 96.5, 204.0, 137.75, 204.0 ],
					"order" : 1,
					"source" : [ "obj-36", 0 ]
				}

			}
, 			{
				"patchline" : 				{
					"color" : [ 0.501961, 0.717647, 0.764706, 1.0 ],
					"destination" : [ "obj-106", 1 ],
					"midpoints" : [ 1072.5, 126.0, 1155.0, 126.0, 1155.0, 174.0, 1125.192932000000155, 174.0 ],
					"order" : 0,
					"source" : [ "obj-37", 0 ]
				}

			}
, 			{
				"patchline" : 				{
					"color" : [ 0.082353, 0.431373, 0.411765, 1.0 ],
					"destination" : [ "obj-187", 3 ],
					"midpoints" : [ 1072.5, 126.0, 645.0, 126.0, 645.0, 303.0, 612.63588900000002, 303.0 ],
					"order" : 2,
					"source" : [ "obj-37", 0 ]
				}

			}
, 			{
				"patchline" : 				{
					"color" : [ 0.501961, 0.717647, 0.764706, 1.0 ],
					"destination" : [ "obj-281", 2 ],
					"midpoints" : [ 1072.5, 126.0, 1014.0, 126.0, 1014.0, 165.0, 1017.0, 165.0, 1017.0, 198.0, 993.285888999999997, 198.0 ],
					"order" : 1,
					"source" : [ "obj-37", 0 ]
				}

			}
, 			{
				"patchline" : 				{
					"destination" : [ "obj-102", 0 ],
					"midpoints" : [ 67.25, 294.0, 126.0, 294.0, 126.0, 279.0, 432.0, 279.0, 432.0, 306.0, 449.099976000000026, 306.0 ],
					"order" : 0,
					"source" : [ "obj-38", 0 ]
				}

			}
, 			{
				"patchline" : 				{
					"destination" : [ "obj-17", 0 ],
					"order" : 1,
					"source" : [ "obj-38", 0 ]
				}

			}
, 			{
				"patchline" : 				{
					"color" : [ 1.0, 1.0, 1.0, 1.0 ],
					"destination" : [ "obj-43", 0 ],
					"midpoints" : [ 116.75, 237.0, 116.75, 237.0 ],
					"source" : [ "obj-39", 0 ]
				}

			}
, 			{
				"patchline" : 				{
					"color" : [ 0.945098, 0.913725, 0.407843, 1.0 ],
					"destination" : [ "obj-80", 1 ],
					"midpoints" : [ 398.274963000000014, 207.0, 444.0, 207.0, 444.0, 267.0, 470.274963000000014, 267.0 ],
					"source" : [ "obj-4", 0 ]
				}

			}
, 			{
				"patchline" : 				{
					"destination" : [ "obj-39", 0 ],
					"midpoints" : [ 34.135956, 246.0, 102.0, 246.0, 102.0, 207.0, 116.75, 207.0 ],
					"source" : [ "obj-41", 0 ]
				}

			}
, 			{
				"patchline" : 				{
					"color" : [ 0.501961, 0.717647, 0.764706, 1.0 ],
					"destination" : [ "obj-106", 2 ],
					"midpoints" : [ 1137.385864000000083, 126.0, 1158.0, 126.0, 1158.0, 198.0, 1208.5, 198.0 ],
					"order" : 0,
					"source" : [ "obj-42", 0 ]
				}

			}
, 			{
				"patchline" : 				{
					"color" : [ 0.082353, 0.431373, 0.411765, 1.0 ],
					"destination" : [ "obj-187", 4 ],
					"midpoints" : [ 1137.385864000000083, 126.0, 645.0, 126.0, 645.0, 303.0, 629.835888999999952, 303.0 ],
					"order" : 2,
					"source" : [ "obj-42", 0 ]
				}

			}
, 			{
				"patchline" : 				{
					"color" : [ 0.501961, 0.717647, 0.764706, 1.0 ],
					"destination" : [ "obj-281", 1 ],
					"midpoints" : [ 1137.385864000000083, 126.0, 927.0, 126.0, 927.0, 198.0, 912.0, 198.0, 912.0, 207.0, 908.785888999999997, 207.0 ],
					"order" : 1,
					"source" : [ "obj-42", 0 ]
				}

			}
, 			{
				"patchline" : 				{
					"color" : [ 1.0, 1.0, 1.0, 1.0 ],
					"destination" : [ "obj-38", 1 ],
					"midpoints" : [ 116.75, 294.0, 42.0, 294.0, 42.0, 246.0, 97.75, 246.0 ],
					"order" : 0,
					"source" : [ "obj-43", 0 ]
				}

			}
, 			{
				"patchline" : 				{
					"destination" : [ "obj-60", 0 ],
					"midpoints" : [ 116.75, 303.0, 50.5, 303.0 ],
					"order" : 1,
					"source" : [ "obj-43", 0 ]
				}

			}
, 			{
				"patchline" : 				{
					"destination" : [ "obj-55", 0 ],
					"midpoints" : [ 226.5, 165.0, 285.0, 165.0, 285.0, 246.0, 193.0, 246.0 ],
					"source" : [ "obj-44", 0 ]
				}

			}
, 			{
				"patchline" : 				{
					"destination" : [ "obj-29", 0 ],
					"source" : [ "obj-5", 0 ]
				}

			}
, 			{
				"patchline" : 				{
					"destination" : [ "obj-68", 0 ],
					"midpoints" : [ 816.785888999999997, 483.0, 729.0, 483.0, 729.0, 147.0, 411.5, 147.0 ],
					"source" : [ "obj-50", 1 ]
				}

			}
, 			{
				"patchline" : 				{
					"destination" : [ "obj-68", 0 ],
					"midpoints" : [ 318.8499755859375, 168.0, 372.0, 168.0, 372.0, 156.0, 411.5, 156.0 ],
					"source" : [ "obj-54", 0 ]
				}

			}
, 			{
				"patchline" : 				{
					"color" : [ 1.0, 1.0, 1.0, 1.0 ],
					"destination" : [ "obj-27", 0 ],
					"midpoints" : [ 193.0, 534.0, 749.5, 534.0 ],
					"order" : 0,
					"source" : [ "obj-55", 0 ]
				}

			}
, 			{
				"patchline" : 				{
					"color" : [ 1.0, 1.0, 1.0, 1.0 ],
					"destination" : [ "obj-43", 1 ],
					"midpoints" : [ 193.0, 330.0, 216.0, 330.0, 216.0, 273.0, 165.0, 273.0, 165.0, 237.0, 154.75, 237.0 ],
					"order" : 1,
					"source" : [ "obj-55", 0 ]
				}

			}
, 			{
				"patchline" : 				{
					"destination" : [ "obj-246", 0 ],
					"source" : [ "obj-57", 0 ]
				}

			}
, 			{
				"patchline" : 				{
					"destination" : [ "obj-18", 0 ],
					"order" : 0,
					"source" : [ "obj-58", 0 ]
				}

			}
, 			{
				"patchline" : 				{
					"destination" : [ "obj-85", 0 ],
					"midpoints" : [ 1200.3858642578125, 117.0, 294.0, 117.0, 294.0, 204.0, 220.0, 204.0 ],
					"order" : 1,
					"source" : [ "obj-58", 0 ]
				}

			}
, 			{
				"patchline" : 				{
					"color" : [ 0.501961, 0.717647, 0.764706, 1.0 ],
					"destination" : [ "obj-291", 0 ],
					"midpoints" : [ 783.785888999999997, 246.0, 792.0, 246.0 ],
					"source" : [ "obj-61", 0 ]
				}

			}
, 			{
				"patchline" : 				{
					"destination" : [ "obj-81", 0 ],
					"source" : [ "obj-68", 0 ]
				}

			}
, 			{
				"patchline" : 				{
					"destination" : [ "obj-57", 0 ],
					"source" : [ "obj-7", 0 ]
				}

			}
, 			{
				"patchline" : 				{
					"color" : [ 0.278431, 0.921569, 0.639216, 1.0 ],
					"destination" : [ "obj-87", 0 ],
					"midpoints" : [ 405.349976000000026, 381.0, 405.349976000000026, 381.0 ],
					"source" : [ "obj-70", 0 ]
				}

			}
, 			{
				"patchline" : 				{
					"destination" : [ "obj-54", 0 ],
					"midpoints" : [ 1261.385864000000083, 124.0, 318.8499755859375, 124.0 ],
					"source" : [ "obj-72", 0 ]
				}

			}
, 			{
				"patchline" : 				{
					"color" : [ 0.082353, 0.431373, 0.411765, 1.0 ],
					"destination" : [ "obj-246", 1 ],
					"midpoints" : [ 642.935913000000028, 240.0, 582.0, 240.0, 582.0, 237.0, 571.535888999999997, 237.0 ],
					"source" : [ "obj-8", 0 ]
				}

			}
, 			{
				"patchline" : 				{
					"destination" : [ "obj-102", 1 ],
					"midpoints" : [ 457.274963000000014, 297.0, 462.599976000000026, 297.0 ],
					"source" : [ "obj-80", 0 ]
				}

			}
, 			{
				"patchline" : 				{
					"destination" : [ "obj-85", 1 ],
					"midpoints" : [ 372.849976000000026, 210.0, 294.0, 210.0 ],
					"source" : [ "obj-81", 0 ]
				}

			}
, 			{
				"patchline" : 				{
					"color" : [ 0.501961, 0.717647, 0.764706, 1.0 ],
					"destination" : [ "obj-20", 0 ],
					"midpoints" : [ 1186.321777000000111, 165.0, 1166.0, 165.0, 1166.0, 123.0, 809.285888999999997, 123.0 ],
					"order" : 0,
					"source" : [ "obj-82", 0 ]
				}

			}
, 			{
				"patchline" : 				{
					"color" : [ 0.501961, 0.717647, 0.764706, 1.0 ],
					"destination" : [ "obj-61", 0 ],
					"midpoints" : [ 1186.321777000000111, 165.0, 1166.0, 165.0, 1166.0, 124.0, 783.785888999999997, 124.0 ],
					"order" : 1,
					"source" : [ "obj-82", 0 ]
				}

			}
, 			{
				"patchline" : 				{
					"destination" : [ "obj-55", 0 ],
					"source" : [ "obj-85", 0 ]
				}

			}
, 			{
				"patchline" : 				{
					"color" : [ 0.501961, 0.717647, 0.764706, 1.0 ],
					"destination" : [ "obj-106", 0 ],
					"midpoints" : [ 405.349976000000026, 436.0, 432.0, 436.0, 432.0, 468.0, 1020.0, 468.0, 1020.0, 195.0, 1041.885864000000083, 195.0 ],
					"order" : 0,
					"source" : [ "obj-87", 0 ]
				}

			}
, 			{
				"patchline" : 				{
					"color" : [ 0.501961, 0.717647, 0.764706, 1.0 ],
					"destination" : [ "obj-170", 0 ],
					"midpoints" : [ 405.349976000000026, 430.892455999999981, 521.067932000000042, 430.892455999999981, 521.067932000000042, 169.734008999999986, 858.785888999999997, 169.734008999999986 ],
					"order" : 1,
					"source" : [ "obj-87", 0 ]
				}

			}
, 			{
				"patchline" : 				{
					"destination" : [ "obj-23", 0 ],
					"midpoints" : [ 405.349976000000026, 432.0, 516.0, 432.0, 516.0, 534.0, 598.535888999999997, 534.0 ],
					"order" : 2,
					"source" : [ "obj-87", 0 ]
				}

			}
, 			{
				"patchline" : 				{
					"destination" : [ "obj-54", 1 ],
					"midpoints" : [ 405.349976000000026, 420.0, 354.0, 420.0, 354.0, 135.0, 329.8499755859375, 135.0 ],
					"order" : 4,
					"source" : [ "obj-87", 0 ]
				}

			}
, 			{
				"patchline" : 				{
					"color" : [ 0.278431, 0.921569, 0.639216, 1.0 ],
					"destination" : [ "obj-97", 0 ],
					"midpoints" : [ 405.349976000000026, 420.0, 405.349976000000026, 420.0 ],
					"order" : 3,
					"source" : [ "obj-87", 0 ]
				}

			}
, 			{
				"patchline" : 				{
					"color" : [ 0.082353, 0.431373, 0.411765, 1.0 ],
					"destination" : [ "obj-187", 5 ],
					"midpoints" : [ 698.535888999999997, 312.0, 647.035888999999997, 312.0 ],
					"source" : [ "obj-9", 0 ]
				}

			}
, 			{
				"patchline" : 				{
					"destination" : [ "obj-80", 0 ],
					"midpoints" : [ 457.274963000000014, 258.0, 457.274963000000014, 258.0 ],
					"source" : [ "obj-94", 0 ]
				}

			}
, 			{
				"patchline" : 				{
					"color" : [ 0.278431, 0.921569, 0.639216, 1.0 ],
					"destination" : [ "obj-24", 0 ],
					"midpoints" : [ 405.349976000000026, 534.0, 652.13586399999997, 534.0 ],
					"source" : [ "obj-97", 0 ]
				}

			}
 ]
	}

}
