{
	"patcher" : 	{
		"fileversion" : 1,
		"appversion" : 		{
			"major" : 8,
			"minor" : 0,
			"revision" : 2,
			"architecture" : "x64",
			"modernui" : 1
		}
,
		"classnamespace" : "box",
		"rect" : [ 93.0, 85.0, 1785.0, 1089.0 ],
		"bglocked" : 0,
		"openinpresentation" : 0,
		"default_fontsize" : 12.0,
		"default_fontface" : 0,
		"default_fontname" : "Arial",
		"gridonopen" : 1,
		"gridsize" : [ 15.0, 15.0 ],
		"gridsnaponopen" : 1,
		"objectsnaponopen" : 1,
		"statusbarvisible" : 2,
		"toolbarvisible" : 1,
		"lefttoolbarpinned" : 0,
		"toptoolbarpinned" : 0,
		"righttoolbarpinned" : 0,
		"bottomtoolbarpinned" : 0,
		"toolbars_unpinned_last_save" : 0,
		"tallnewobj" : 0,
		"boxanimatetime" : 200,
		"enablehscroll" : 1,
		"enablevscroll" : 1,
		"devicewidth" : 0.0,
		"description" : "",
		"digest" : "",
		"tags" : "",
		"style" : "",
		"subpatcher_template" : "",
		"boxes" : [ 			{
				"box" : 				{
					"id" : "obj-14",
					"maxclass" : "meter~",
					"numinlets" : 1,
					"numoutlets" : 1,
					"outlettype" : [ "float" ],
					"patching_rect" : [ 925.95654296875, 616.732177734375, 80.0, 13.0 ]
				}

			}
, 			{
				"box" : 				{
					"id" : "obj-12",
					"maxclass" : "meter~",
					"numinlets" : 1,
					"numoutlets" : 1,
					"outlettype" : [ "float" ],
					"patching_rect" : [ 746.035888671875, 725.841552734375, 80.0, 13.0 ]
				}

			}
, 			{
				"box" : 				{
					"id" : "obj-9",
					"maxclass" : "meter~",
					"numinlets" : 1,
					"numoutlets" : 1,
					"outlettype" : [ "float" ],
					"patching_rect" : [ 746.035888671875, 656.841552734375, 80.0, 13.0 ]
				}

			}
, 			{
				"box" : 				{
					"id" : "obj-7",
					"maxclass" : "message",
					"numinlets" : 2,
					"numoutlets" : 1,
					"outlettype" : [ "" ],
					"patching_rect" : [ 684.0, 279.0, 50.0, 22.0 ],
					"text" : "0"
				}

			}
, 			{
				"box" : 				{
					"id" : "obj-4",
					"maxclass" : "meter~",
					"numinlets" : 1,
					"numoutlets" : 1,
					"outlettype" : [ "float" ],
					"patching_rect" : [ 775.228271484375, 621.0, 80.0, 13.0 ]
				}

			}
, 			{
				"box" : 				{
					"id" : "obj-3",
					"maxclass" : "meter~",
					"numinlets" : 1,
					"numoutlets" : 1,
					"outlettype" : [ "float" ],
					"patching_rect" : [ 807.228271484375, 590.0, 80.0, 13.0 ]
				}

			}
, 			{
				"box" : 				{
					"comment" : "",
					"id" : "obj-1",
					"index" : 5,
					"maxclass" : "inlet",
					"numinlets" : 0,
					"numoutlets" : 1,
					"outlettype" : [ "int" ],
					"patching_rect" : [ 950.95654296875, 664.841552734375, 30.0, 30.0 ]
				}

			}
, 			{
				"box" : 				{
					"comment" : "",
					"id" : "obj-8",
					"index" : 2,
					"maxclass" : "inlet",
					"numinlets" : 0,
					"numoutlets" : 1,
					"outlettype" : [ "list" ],
					"patching_rect" : [ 576.536376953125, 145.9881591796875, 30.0, 30.0 ]
				}

			}
, 			{
				"box" : 				{
					"comment" : "",
					"id" : "obj-1506",
					"index" : 1,
					"maxclass" : "outlet",
					"numinlets" : 1,
					"numoutlets" : 0,
					"patching_rect" : [ 569.536376953125, 1005.294189453125, 30.0, 30.0 ]
				}

			}
, 			{
				"box" : 				{
					"comment" : "",
					"id" : "obj-1505",
					"index" : 2,
					"maxclass" : "outlet",
					"numinlets" : 1,
					"numoutlets" : 0,
					"patching_rect" : [ 641.612548828125, 1005.294189453125, 30.0, 30.0 ]
				}

			}
, 			{
				"box" : 				{
					"id" : "obj-1500",
					"linecount" : 3,
					"maxclass" : "comment",
					"numinlets" : 1,
					"numoutlets" : 0,
					"patching_rect" : [ 265.385986328125, 483.960693359375, 110.184814453125, 47.0 ],
					"text" : "receive from change in polycontrols?"
				}

			}
, 			{
				"box" : 				{
					"comment" : "",
					"id" : "obj-1498",
					"index" : 4,
					"maxclass" : "inlet",
					"numinlets" : 0,
					"numoutlets" : 1,
					"outlettype" : [ "" ],
					"patching_rect" : [ 899.95654296875, 668.841552734375, 30.0, 30.0 ]
				}

			}
, 			{
				"box" : 				{
					"comment" : "",
					"id" : "obj-1494",
					"index" : 3,
					"maxclass" : "inlet",
					"numinlets" : 0,
					"numoutlets" : 1,
					"outlettype" : [ "float" ],
					"patching_rect" : [ 857.228271484375, 668.841552734375, 30.0, 30.0 ]
				}

			}
, 			{
				"box" : 				{
					"comment" : "",
					"id" : "obj-1492",
					"index" : 1,
					"maxclass" : "inlet",
					"numinlets" : 0,
					"numoutlets" : 1,
					"outlettype" : [ "" ],
					"patching_rect" : [ 154.457275390625, 40.960693359375, 30.0, 30.0 ]
				}

			}
, 			{
				"box" : 				{
					"id" : "obj-1483",
					"linecount" : 2,
					"maxclass" : "comment",
					"numinlets" : 1,
					"numoutlets" : 0,
					"patching_rect" : [ 328.385986328125, 754.830322265625, 110.184814453125, 33.0 ],
					"text" : "receive from line~ in polycontrols?"
				}

			}
, 			{
				"box" : 				{
					"id" : "obj-1373",
					"linecount" : 2,
					"maxclass" : "newobj",
					"numinlets" : 1,
					"numoutlets" : 1,
					"outlettype" : [ "signal" ],
					"patching_rect" : [ 670.20361328125, 407.57763671875, 79.0, 35.0 ],
					"text" : "receive~ polyOutR22"
				}

			}
, 			{
				"box" : 				{
					"id" : "obj-1377",
					"linecount" : 2,
					"maxclass" : "newobj",
					"numinlets" : 1,
					"numoutlets" : 1,
					"outlettype" : [ "signal" ],
					"patching_rect" : [ 586.041259765625, 407.57763671875, 77.0, 35.0 ],
					"text" : "receive~ polyOutL22"
				}

			}
, 			{
				"box" : 				{
					"id" : "obj-1350",
					"linecount" : 2,
					"maxclass" : "newobj",
					"numinlets" : 1,
					"numoutlets" : 1,
					"outlettype" : [ "signal" ],
					"patching_rect" : [ 502.87841796875, 407.57763671875, 79.0, 35.0 ],
					"text" : "receive~ polyOutR21"
				}

			}
, 			{
				"box" : 				{
					"id" : "obj-1347",
					"linecount" : 2,
					"maxclass" : "newobj",
					"numinlets" : 1,
					"numoutlets" : 1,
					"outlettype" : [ "signal" ],
					"patching_rect" : [ 423.136474609375, 407.57763671875, 77.0, 35.0 ],
					"text" : "receive~ polyOutL21"
				}

			}
, 			{
				"box" : 				{
					"id" : "obj-1256",
					"maxclass" : "newobj",
					"numinlets" : 0,
					"numoutlets" : 1,
					"outlettype" : [ "" ],
					"patching_rect" : [ 518.69873046875, 262.0028076171875, 119.0, 22.0 ],
					"text" : "r metaPolyVoiceTgl2"
				}

			}
, 			{
				"box" : 				{
					"id" : "obj-1515",
					"maxclass" : "newobj",
					"numinlets" : 0,
					"numoutlets" : 1,
					"outlettype" : [ "" ],
					"patching_rect" : [ 444.642822265625, 93.1168212890625, 81.0, 22.0 ],
					"text" : "r presetsOut2"
				}

			}
, 			{
				"box" : 				{
					"id" : "obj-1444",
					"maxclass" : "newobj",
					"numinlets" : 1,
					"numoutlets" : 0,
					"patching_rect" : [ 200.608642578125, 87.9881591796875, 78.0, 22.0 ],
					"text" : "s acVolume2"
				}

			}
, 			{
				"box" : 				{
					"id" : "obj-1306",
					"maxclass" : "newobj",
					"numinlets" : 2,
					"numoutlets" : 1,
					"outlettype" : [ "int" ],
					"patching_rect" : [ 813.777099609375, 825.305419921875, 29.5, 22.0 ],
					"text" : "!- 1"
				}

			}
, 			{
				"box" : 				{
					"hidden" : 1,
					"id" : "obj-1267",
					"maxclass" : "newobj",
					"numinlets" : 1,
					"numoutlets" : 1,
					"outlettype" : [ "bang" ],
					"patching_rect" : [ 750.535888671875, 840.576904296875, 62.0, 22.0 ],
					"text" : "loadbang"
				}

			}
, 			{
				"box" : 				{
					"hidden" : 1,
					"id" : "obj-1289",
					"maxclass" : "message",
					"numinlets" : 2,
					"numoutlets" : 1,
					"outlettype" : [ "" ],
					"patching_rect" : [ 755.009521484375, 948.897705078125, 67.0, 22.0 ],
					"text" : "ingain $1"
				}

			}
, 			{
				"box" : 				{
					"hidden" : 1,
					"id" : "obj-1299",
					"maxclass" : "message",
					"numinlets" : 2,
					"numoutlets" : 1,
					"outlettype" : [ "" ],
					"patching_rect" : [ 766.535888671875, 905.576904296875, 75.0, 22.0 ],
					"text" : "bypass $1"
				}

			}
, 			{
				"box" : 				{
					"hidden" : 1,
					"id" : "obj-1300",
					"maxclass" : "message",
					"numinlets" : 2,
					"numoutlets" : 1,
					"outlettype" : [ "" ],
					"patching_rect" : [ 750.535888671875, 873.576904296875, 68.0, 22.0 ],
					"text" : "meters 1"
				}

			}
, 			{
				"box" : 				{
					"id" : "obj-1301",
					"maxclass" : "newobj",
					"numinlets" : 2,
					"numoutlets" : 4,
					"outlettype" : [ "signal", "signal", "list", "list" ],
					"patching_rect" : [ 447.536376953125, 929.960693359375, 114.0, 22.0 ],
					"style" : "newobjYellow",
					"text" : "omx.PeakLim~"
				}

			}
, 			{
				"box" : 				{
					"id" : "obj-1305",
					"maxclass" : "comment",
					"numinlets" : 1,
					"numoutlets" : 0,
					"patching_rect" : [ 758.535888671875, 803.576904296875, 55.0, 20.0 ],
					"text" : "Bypass"
				}

			}
, 			{
				"box" : 				{
					"id" : "obj-1212",
					"linecount" : 2,
					"maxclass" : "newobj",
					"numinlets" : 2,
					"numoutlets" : 1,
					"outlettype" : [ "signal" ],
					"patching_rect" : [ 670.20361328125, 458.242431640625, 70.224578857421875, 35.0 ],
					"text" : "delay~ 44100 1"
				}

			}
, 			{
				"box" : 				{
					"id" : "obj-1213",
					"linecount" : 2,
					"maxclass" : "newobj",
					"numinlets" : 2,
					"numoutlets" : 1,
					"outlettype" : [ "signal" ],
					"patching_rect" : [ 595.999755859375, 458.242431640625, 70.224578857421875, 35.0 ],
					"text" : "delay~ 44100 1"
				}

			}
, 			{
				"box" : 				{
					"id" : "obj-1211",
					"linecount" : 2,
					"maxclass" : "newobj",
					"numinlets" : 2,
					"numoutlets" : 1,
					"outlettype" : [ "signal" ],
					"patching_rect" : [ 508.65380859375, 458.242431640625, 70.224578857421875, 35.0 ],
					"text" : "delay~ 44100 1"
				}

			}
, 			{
				"box" : 				{
					"id" : "obj-1222",
					"linecount" : 2,
					"maxclass" : "newobj",
					"numinlets" : 2,
					"numoutlets" : 1,
					"outlettype" : [ "signal" ],
					"patching_rect" : [ 426.354248046875, 458.242431640625, 70.224578857421875, 35.0 ],
					"text" : "delay~ 44100 1"
				}

			}
, 			{
				"box" : 				{
					"id" : "obj-1125",
					"maxclass" : "newobj",
					"numinlets" : 1,
					"numoutlets" : 1,
					"outlettype" : [ "" ],
					"patching_rect" : [ 604.763671875, 855.047119140625, 83.0, 22.0 ],
					"text" : "loadmess 127"
				}

			}
, 			{
				"box" : 				{
					"id" : "obj-167",
					"maxclass" : "gain~",
					"multichannelvariant" : 0,
					"numinlets" : 1,
					"numoutlets" : 2,
					"outlettype" : [ "signal", "" ],
					"parameter_enable" : 0,
					"patching_rect" : [ 493.221435546875, 846.547119140625, 26.16058349609375, 39.0 ]
				}

			}
, 			{
				"box" : 				{
					"id" : "obj-109",
					"maxclass" : "gain~",
					"multichannelvariant" : 0,
					"numinlets" : 1,
					"numoutlets" : 2,
					"outlettype" : [ "signal", "" ],
					"parameter_enable" : 0,
					"patching_rect" : [ 460.933837890625, 846.547119140625, 26.16058349609375, 39.0 ]
				}

			}
, 			{
				"box" : 				{
					"id" : "obj-581",
					"maxclass" : "newobj",
					"numinlets" : 3,
					"numoutlets" : 2,
					"outlettype" : [ "signal", "signal" ],
					"patching_rect" : [ 453.716552734375, 807.414306640625, 94.6619873046875, 22.0 ],
					"text" : "pan"
				}

			}
, 			{
				"box" : 				{
					"id" : "obj-965",
					"maxclass" : "button",
					"numinlets" : 1,
					"numoutlets" : 1,
					"outlettype" : [ "bang" ],
					"parameter_enable" : 0,
					"patching_rect" : [ 408.136474609375, 118.8887939453125, 24.0, 24.0 ]
				}

			}
, 			{
				"box" : 				{
					"id" : "obj-958",
					"maxclass" : "newobj",
					"numinlets" : 2,
					"numoutlets" : 2,
					"outlettype" : [ "", "" ],
					"patching_rect" : [ 629.81640625, 331.0736083984375, 44.0, 22.0 ],
					"text" : "gate 2"
				}

			}
, 			{
				"box" : 				{
					"id" : "obj-957",
					"maxclass" : "newobj",
					"numinlets" : 2,
					"numoutlets" : 2,
					"outlettype" : [ "", "" ],
					"patching_rect" : [ 447.536376953125, 267.5396728515625, 40.0, 22.0 ],
					"text" : "zl reg"
				}

			}
, 			{
				"box" : 				{
					"id" : "obj-522",
					"maxclass" : "newobj",
					"numinlets" : 0,
					"numoutlets" : 1,
					"outlettype" : [ "" ],
					"patching_rect" : [ 759.00146484375, 494.960693359375, 54.0, 22.0 ],
					"text" : "r eqmsg"
				}

			}
, 			{
				"box" : 				{
					"id" : "obj-60",
					"maxclass" : "newobj",
					"numinlets" : 1,
					"numoutlets" : 0,
					"patching_rect" : [ 506.957763671875, 1013.294189453125, 41.0, 22.0 ],
					"text" : "s out4"
				}

			}
, 			{
				"box" : 				{
					"id" : "obj-13",
					"maxclass" : "newobj",
					"numinlets" : 1,
					"numoutlets" : 0,
					"patching_rect" : [ 453.716552734375, 1013.294189453125, 41.0, 22.0 ],
					"text" : "s out3"
				}

			}
, 			{
				"box" : 				{
					"id" : "obj-525",
					"maxclass" : "message",
					"numinlets" : 2,
					"numoutlets" : 1,
					"outlettype" : [ "" ],
					"patching_rect" : [ 224.101318359375, 505.58154296875, 29.5, 22.0 ],
					"text" : "1"
				}

			}
, 			{
				"box" : 				{
					"id" : "obj-426",
					"maxclass" : "newobj",
					"numinlets" : 2,
					"numoutlets" : 2,
					"outlettype" : [ "", "" ],
					"patching_rect" : [ 569.536376953125, 331.0736083984375, 44.0, 22.0 ],
					"text" : "gate 2"
				}

			}
, 			{
				"box" : 				{
					"id" : "obj-418",
					"maxclass" : "gain~",
					"multichannelvariant" : 0,
					"numinlets" : 1,
					"numoutlets" : 2,
					"outlettype" : [ "signal", "" ],
					"parameter_enable" : 0,
					"patching_rect" : [ 599.314208984375, 576.790283203125, 32.59027099609375, 52.94189453125 ]
				}

			}
, 			{
				"box" : 				{
					"id" : "obj-419",
					"interp" : 51.0,
					"knobcolor" : [ 1.0, 1.0, 1.0, 0.93 ],
					"maxclass" : "gain~",
					"multichannelvariant" : 0,
					"numinlets" : 1,
					"numoutlets" : 2,
					"outlettype" : [ "signal", "" ],
					"parameter_enable" : 0,
					"patching_rect" : [ 678.197021484375, 576.790283203125, 31.834426879882813, 52.94189453125 ],
					"style" : "chiba"
				}

			}
, 			{
				"box" : 				{
					"id" : "obj-417",
					"maxclass" : "gain~",
					"multichannelvariant" : 0,
					"numinlets" : 1,
					"numoutlets" : 2,
					"outlettype" : [ "signal", "" ],
					"parameter_enable" : 0,
					"patching_rect" : [ 445.161376953125, 576.790283203125, 29.8984375, 52.94189453125 ]
				}

			}
, 			{
				"box" : 				{
					"id" : "obj-400",
					"maxclass" : "newobj",
					"numinlets" : 2,
					"numoutlets" : 1,
					"outlettype" : [ "int" ],
					"patching_rect" : [ 526.12841796875, 310.4422607421875, 29.5, 22.0 ],
					"text" : "+ 1"
				}

			}
, 			{
				"box" : 				{
					"id" : "obj-399",
					"maxclass" : "newobj",
					"numinlets" : 2,
					"numoutlets" : 2,
					"outlettype" : [ "", "" ],
					"patching_rect" : [ 553.19873046875, 543.619384765625, 44.0, 22.0 ],
					"text" : "gate 2"
				}

			}
, 			{
				"box" : 				{
					"fontname" : "Arial",
					"fontsize" : 11.595186999999999,
					"id" : "obj-75",
					"maxclass" : "newobj",
					"numinlets" : 2,
					"numoutlets" : 1,
					"outlettype" : [ "signal" ],
					"patching_rect" : [ 670.20361328125, 504.242431640625, 68.845947265625, 21.0 ],
					"text" : "cascade~"
				}

			}
, 			{
				"box" : 				{
					"fontname" : "Arial",
					"fontsize" : 11.595186999999999,
					"id" : "obj-80",
					"maxclass" : "newobj",
					"numinlets" : 2,
					"numoutlets" : 1,
					"outlettype" : [ "signal" ],
					"patching_rect" : [ 599.314208984375, 504.242431640625, 63.595947265625, 21.0 ],
					"text" : "cascade~"
				}

			}
, 			{
				"box" : 				{
					"id" : "obj-56",
					"interp" : 51.0,
					"knobcolor" : [ 1.0, 1.0, 1.0, 0.93 ],
					"maxclass" : "gain~",
					"multichannelvariant" : 0,
					"numinlets" : 1,
					"numoutlets" : 2,
					"outlettype" : [ "signal", "" ],
					"parameter_enable" : 0,
					"patching_rect" : [ 518.87841796875, 576.790283203125, 29.834426879882813, 52.94189453125 ],
					"style" : "chiba"
				}

			}
, 			{
				"box" : 				{
					"id" : "obj-252",
					"maxclass" : "newobj",
					"numinlets" : 2,
					"numoutlets" : 1,
					"outlettype" : [ "signal" ],
					"patching_rect" : [ 518.87841796875, 754.830322265625, 34.0, 22.0 ],
					"text" : "*~ 1."
				}

			}
, 			{
				"box" : 				{
					"id" : "obj-250",
					"maxclass" : "newobj",
					"numinlets" : 2,
					"numoutlets" : 1,
					"outlettype" : [ "signal" ],
					"patching_rect" : [ 453.716552734375, 754.830322265625, 34.0, 22.0 ],
					"text" : "*~ 1."
				}

			}
, 			{
				"box" : 				{
					"id" : "obj-171",
					"maxclass" : "message",
					"numinlets" : 2,
					"numoutlets" : 1,
					"outlettype" : [ "" ],
					"patching_rect" : [ 612.122314453125, 710.651123046875, 33.0, 22.0 ],
					"text" : "plug"
				}

			}
, 			{
				"box" : 				{
					"id" : "obj-67",
					"maxclass" : "message",
					"numinlets" : 2,
					"numoutlets" : 1,
					"outlettype" : [ "" ],
					"patching_rect" : [ 612.122314453125, 668.841552734375, 33.0, 22.0 ],
					"text" : "plug"
				}

			}
, 			{
				"box" : 				{
					"id" : "obj-100",
					"maxclass" : "message",
					"numinlets" : 2,
					"numoutlets" : 1,
					"outlettype" : [ "" ],
					"patching_rect" : [ 563.854248046875, 710.651123046875, 37.0, 22.0 ],
					"text" : "open"
				}

			}
, 			{
				"box" : 				{
					"id" : "obj-18",
					"maxclass" : "newobj",
					"numinlets" : 2,
					"numoutlets" : 2,
					"outlettype" : [ "signal", "signal" ],
					"patcher" : 					{
						"fileversion" : 1,
						"appversion" : 						{
							"major" : 8,
							"minor" : 0,
							"revision" : 2,
							"architecture" : "x64",
							"modernui" : 1
						}
,
						"classnamespace" : "box",
						"rect" : [ 571.0, 85.0, 640.0, 480.0 ],
						"bglocked" : 0,
						"openinpresentation" : 0,
						"default_fontsize" : 12.0,
						"default_fontface" : 0,
						"default_fontname" : "Arial",
						"gridonopen" : 1,
						"gridsize" : [ 15.0, 15.0 ],
						"gridsnaponopen" : 1,
						"objectsnaponopen" : 1,
						"statusbarvisible" : 2,
						"toolbarvisible" : 1,
						"lefttoolbarpinned" : 0,
						"toptoolbarpinned" : 0,
						"righttoolbarpinned" : 0,
						"bottomtoolbarpinned" : 0,
						"toolbars_unpinned_last_save" : 0,
						"tallnewobj" : 0,
						"boxanimatetime" : 200,
						"enablehscroll" : 1,
						"enablevscroll" : 1,
						"devicewidth" : 0.0,
						"description" : "",
						"digest" : "",
						"tags" : "",
						"style" : "",
						"subpatcher_template" : "",
						"boxes" : [ 							{
								"box" : 								{
									"comment" : "",
									"id" : "obj-4",
									"index" : 2,
									"maxclass" : "outlet",
									"numinlets" : 1,
									"numoutlets" : 0,
									"patching_rect" : [ 115.0, 377.0, 30.0, 30.0 ]
								}

							}
, 							{
								"box" : 								{
									"comment" : "",
									"id" : "obj-3",
									"index" : 1,
									"maxclass" : "outlet",
									"numinlets" : 1,
									"numoutlets" : 0,
									"patching_rect" : [ 39.0, 373.0, 30.0, 30.0 ]
								}

							}
, 							{
								"box" : 								{
									"comment" : "",
									"id" : "obj-2",
									"index" : 2,
									"maxclass" : "inlet",
									"numinlets" : 0,
									"numoutlets" : 1,
									"outlettype" : [ "signal" ],
									"patching_rect" : [ 94.0, 114.0, 30.0, 30.0 ]
								}

							}
, 							{
								"box" : 								{
									"comment" : "",
									"id" : "obj-1",
									"index" : 1,
									"maxclass" : "inlet",
									"numinlets" : 0,
									"numoutlets" : 1,
									"outlettype" : [ "" ],
									"patching_rect" : [ 15.0, 126.0, 30.0, 30.0 ]
								}

							}
, 							{
								"box" : 								{
									"autosave" : 1,
									"bgmode" : 0,
									"border" : 0,
									"clickthrough" : 0,
									"fontname" : "Arial",
									"fontsize" : 13.0,
									"id" : "obj-35",
									"maxclass" : "newobj",
									"numinlets" : 2,
									"numoutlets" : 8,
									"offset" : [ 0.0, 0.0 ],
									"outlettype" : [ "signal", "signal", "", "list", "int", "", "", "" ],
									"patching_rect" : [ 19.0, 295.0, 169.0, 23.0 ],
									"save" : [ "#N", "vst~", "loaduniqueid", 0, ";" ],
									"saved_attribute_attributes" : 									{
										"valueof" : 										{
											"parameter_invisible" : 1,
											"parameter_longname" : "vst~[8]",
											"parameter_shortname" : "vst~[1]",
											"parameter_type" : 3
										}

									}
,
									"saved_object_attributes" : 									{
										"parameter_enable" : 1,
										"parameter_mappable" : 0
									}
,
									"snapshot" : 									{
										"filetype" : "C74Snapshot",
										"version" : 2,
										"minorversion" : 0,
										"name" : "snapshotlist",
										"origin" : "vst~",
										"type" : "list",
										"subtype" : "Undefined",
										"embed" : 1,
										"snapshot" : 										{
											"pluginname" : "PechenegTremolo.dll",
											"plugindisplayname" : "PechenegTremolo",
											"pluginsavedname" : "C:/Program Files (x86)/VstPlugInsx86/PechenegTremolo.dll",
											"pluginsaveduniqueid" : 0,
											"version" : 1,
											"isbank" : 0,
											"isbase64" : 1,
											"blob" : "100.CMlaKA....fQ3MzZ....AjDbkYF..bBD....KPTYlEVcrQG...........................vO.........vSWU12O.........3i+lY1OJXlY......................"
										}
,
										"snapshotlist" : 										{
											"current_snapshot" : 0,
											"entries" : [ 												{
													"filetype" : "C74Snapshot",
													"version" : 1,
													"name" : "PechenegTremolo.dll",
													"origin" : "PechenegTremolo.dll",
													"type" : "VST",
													"subtype" : "AudioEffect",
													"snapshot" : 													{
														"pluginname" : "PechenegTremolo.dll",
														"plugindisplayname" : "PechenegTremolo",
														"pluginsavedname" : "C:/Program Files (x86)/VstPlugInsx86/PechenegTremolo.dll",
														"pluginsaveduniqueid" : 0,
														"version" : 1,
														"isbank" : 0,
														"isbase64" : 1,
														"blob" : "100.CMlaKA....fQ3MzZ....AjDbkYF..bBD....KPTYlEVcrQG...........................vO.........vSWU12O.........3i+lY1OJXlY......................"
													}
,
													"embed" : 0
												}
 ]
										}

									}
,
									"text" : "vst~",
									"varname" : "vst~",
									"viewvisibility" : 0
								}

							}
, 							{
								"box" : 								{
									"id" : "obj-34",
									"maxclass" : "toggle",
									"numinlets" : 1,
									"numoutlets" : 1,
									"outlettype" : [ "int" ],
									"parameter_enable" : 0,
									"patching_rect" : [ 344.0, 203.0, 24.0, 24.0 ]
								}

							}
, 							{
								"box" : 								{
									"fontname" : "Arial",
									"fontsize" : 13.0,
									"id" : "obj-20",
									"maxclass" : "message",
									"numinlets" : 2,
									"numoutlets" : 1,
									"outlettype" : [ "" ],
									"patching_rect" : [ 344.0, 228.0, 70.0, 23.0 ],
									"text" : "bypass $1"
								}

							}
, 							{
								"box" : 								{
									"id" : "obj-38",
									"maxclass" : "toggle",
									"numinlets" : 1,
									"numoutlets" : 1,
									"outlettype" : [ "int" ],
									"parameter_enable" : 0,
									"patching_rect" : [ 344.0, 153.0, 24.0, 24.0 ]
								}

							}
, 							{
								"box" : 								{
									"fontname" : "Arial",
									"fontsize" : 13.0,
									"id" : "obj-39",
									"maxclass" : "message",
									"numinlets" : 2,
									"numoutlets" : 1,
									"outlettype" : [ "" ],
									"patching_rect" : [ 344.0, 178.0, 70.0, 23.0 ],
									"text" : "disable $1"
								}

							}
, 							{
								"box" : 								{
									"fontname" : "Arial",
									"fontsize" : 13.0,
									"id" : "obj-18",
									"maxclass" : "message",
									"numinlets" : 2,
									"numoutlets" : 1,
									"outlettype" : [ "" ],
									"patching_rect" : [ 343.0, 126.0, 70.0, 23.0 ],
									"text" : "wclose"
								}

							}
, 							{
								"box" : 								{
									"fontname" : "Arial",
									"fontsize" : 13.0,
									"id" : "obj-12",
									"maxclass" : "message",
									"numinlets" : 2,
									"numoutlets" : 1,
									"outlettype" : [ "" ],
									"patching_rect" : [ 343.0, 53.0, 70.0, 23.0 ],
									"text" : "plug"
								}

							}
 ],
						"lines" : [ 							{
								"patchline" : 								{
									"destination" : [ "obj-35", 0 ],
									"source" : [ "obj-1", 0 ]
								}

							}
, 							{
								"patchline" : 								{
									"destination" : [ "obj-35", 0 ],
									"source" : [ "obj-12", 0 ]
								}

							}
, 							{
								"patchline" : 								{
									"destination" : [ "obj-35", 0 ],
									"source" : [ "obj-18", 0 ]
								}

							}
, 							{
								"patchline" : 								{
									"destination" : [ "obj-35", 1 ],
									"source" : [ "obj-2", 0 ]
								}

							}
, 							{
								"patchline" : 								{
									"destination" : [ "obj-35", 0 ],
									"source" : [ "obj-20", 0 ]
								}

							}
, 							{
								"patchline" : 								{
									"destination" : [ "obj-20", 0 ],
									"source" : [ "obj-34", 0 ]
								}

							}
, 							{
								"patchline" : 								{
									"destination" : [ "obj-3", 0 ],
									"source" : [ "obj-35", 0 ]
								}

							}
, 							{
								"patchline" : 								{
									"destination" : [ "obj-4", 0 ],
									"source" : [ "obj-35", 1 ]
								}

							}
, 							{
								"patchline" : 								{
									"destination" : [ "obj-39", 0 ],
									"source" : [ "obj-38", 0 ]
								}

							}
, 							{
								"patchline" : 								{
									"destination" : [ "obj-35", 0 ],
									"source" : [ "obj-39", 0 ]
								}

							}
 ]
					}
,
					"patching_rect" : [ 447.536376953125, 701.651123046875, 95.0, 22.0 ],
					"saved_object_attributes" : 					{
						"description" : "",
						"digest" : "",
						"globalpatchername" : "",
						"tags" : ""
					}
,
					"text" : "patcher reatune"
				}

			}
, 			{
				"box" : 				{
					"id" : "obj-83",
					"maxclass" : "message",
					"numinlets" : 2,
					"numoutlets" : 1,
					"outlettype" : [ "" ],
					"patching_rect" : [ 563.854248046875, 668.841552734375, 37.0, 22.0 ],
					"text" : "open"
				}

			}
, 			{
				"box" : 				{
					"id" : "obj-121",
					"maxclass" : "newobj",
					"numinlets" : 2,
					"numoutlets" : 2,
					"outlettype" : [ "signal", "signal" ],
					"patcher" : 					{
						"fileversion" : 1,
						"appversion" : 						{
							"major" : 8,
							"minor" : 0,
							"revision" : 2,
							"architecture" : "x64",
							"modernui" : 1
						}
,
						"classnamespace" : "box",
						"rect" : [ 104.0, 85.0, 640.0, 480.0 ],
						"bglocked" : 0,
						"openinpresentation" : 0,
						"default_fontsize" : 12.0,
						"default_fontface" : 0,
						"default_fontname" : "Arial",
						"gridonopen" : 1,
						"gridsize" : [ 15.0, 15.0 ],
						"gridsnaponopen" : 1,
						"objectsnaponopen" : 1,
						"statusbarvisible" : 2,
						"toolbarvisible" : 1,
						"lefttoolbarpinned" : 0,
						"toptoolbarpinned" : 0,
						"righttoolbarpinned" : 0,
						"bottomtoolbarpinned" : 0,
						"toolbars_unpinned_last_save" : 0,
						"tallnewobj" : 0,
						"boxanimatetime" : 200,
						"enablehscroll" : 1,
						"enablevscroll" : 1,
						"devicewidth" : 0.0,
						"description" : "",
						"digest" : "",
						"tags" : "",
						"style" : "",
						"subpatcher_template" : "",
						"boxes" : [ 							{
								"box" : 								{
									"comment" : "",
									"id" : "obj-4",
									"index" : 2,
									"maxclass" : "outlet",
									"numinlets" : 1,
									"numoutlets" : 0,
									"patching_rect" : [ 115.0, 377.0, 30.0, 30.0 ]
								}

							}
, 							{
								"box" : 								{
									"comment" : "",
									"id" : "obj-3",
									"index" : 1,
									"maxclass" : "outlet",
									"numinlets" : 1,
									"numoutlets" : 0,
									"patching_rect" : [ 39.0, 373.0, 30.0, 30.0 ]
								}

							}
, 							{
								"box" : 								{
									"comment" : "",
									"id" : "obj-2",
									"index" : 2,
									"maxclass" : "inlet",
									"numinlets" : 0,
									"numoutlets" : 1,
									"outlettype" : [ "signal" ],
									"patching_rect" : [ 94.0, 114.0, 30.0, 30.0 ]
								}

							}
, 							{
								"box" : 								{
									"comment" : "",
									"id" : "obj-1",
									"index" : 1,
									"maxclass" : "inlet",
									"numinlets" : 0,
									"numoutlets" : 1,
									"outlettype" : [ "signal" ],
									"patching_rect" : [ 15.0, 126.0, 30.0, 30.0 ]
								}

							}
, 							{
								"box" : 								{
									"autosave" : 1,
									"bgmode" : 0,
									"border" : 0,
									"clickthrough" : 0,
									"fontname" : "Arial",
									"fontsize" : 13.0,
									"id" : "obj-35",
									"maxclass" : "newobj",
									"numinlets" : 2,
									"numoutlets" : 8,
									"offset" : [ 0.0, 0.0 ],
									"outlettype" : [ "signal", "signal", "", "list", "int", "", "", "" ],
									"patching_rect" : [ 19.0, 295.0, 169.0, 23.0 ],
									"save" : [ "#N", "vst~", "loaduniqueid", 0, ";" ],
									"saved_attribute_attributes" : 									{
										"valueof" : 										{
											"parameter_invisible" : 1,
											"parameter_longname" : "vst~[9]",
											"parameter_shortname" : "vst~",
											"parameter_type" : 3
										}

									}
,
									"saved_object_attributes" : 									{
										"parameter_enable" : 1,
										"parameter_mappable" : 0
									}
,
									"snapshot" : 									{
										"filetype" : "C74Snapshot",
										"version" : 2,
										"minorversion" : 0,
										"name" : "snapshotlist",
										"origin" : "vst~",
										"type" : "list",
										"subtype" : "Undefined",
										"embed" : 1,
										"snapshot" : 										{
											"pluginname" : "ValhallaVintageVerb_x64.dll",
											"plugindisplayname" : "ValhallaVintageVerb",
											"pluginsavedname" : "C:/VST/ValhallaVintageVerb_x64.dll",
											"pluginsaveduniqueid" : 0,
											"version" : 1,
											"isbank" : 0,
											"isbase64" : 1,
											"blob" : "499.CMlaKA....fQPMDZ....AXWYkMC.A.P..............................................DvsVMjLgzZ....OVEFanEFarElUo4FcgcVYVUlbhABbrU2Yo4lUkI2bo8la8HRLt.iKwHBHvIWYyUFcNEVak0iHDUlYgUGazIBHMkFd8HBLh.BTxUFQkwVX40iHv3RM4LSN4jSN3HiHfPTYiEVd8HBLtTyLx.CLv.CL0HBHSkldk0iHwHBHAQGcgM1Z8HBLtTiHfHTXyMWS0wFc8HBLtXiLy.yL3biM4HBHBE1byg0a1Ulb8HBLtPCMzbCLwDCL0HBHHk1YnMEZkwlY8HBLh.BRocFZFIWYw0iHv3RMh.RQgIGa4QTZlYVcyk1at0iHwHBHLEFckQTZlYVcyk1at0iHwHBHM8FYREFck0iHv3hLzTCM0PSM1TiHfzzajQTYvQGZ8HBLtLyM4jSN4jSN0HBHHk1YnMTcz0iHv3RL4PSN4jSN4LiHfvza2MTcz0iHv3BM4HCLv.CLwPiHfLzar8lbM8FYk0iHv3hM1XiM1XiM3biHfHUY1Ulbh0zajUVOh.iKx.CNyLyLyHCNh.RaogGSuM1Z8HBLh.RcocUZjQGZ8HRNyTiHfTWZHUVZmgFc8HBMyTiHu3C.h."
										}
,
										"snapshotlist" : 										{
											"current_snapshot" : 0,
											"entries" : [ 												{
													"filetype" : "C74Snapshot",
													"version" : 2,
													"minorversion" : 0,
													"name" : "PechenegTremolo.dll",
													"origin" : "ValhallaVintageVerb_x64.dll",
													"type" : "VST",
													"subtype" : "AudioEffect",
													"embed" : 0,
													"snapshot" : 													{
														"pluginname" : "ValhallaVintageVerb_x64.dll",
														"plugindisplayname" : "ValhallaVintageVerb",
														"pluginsavedname" : "C:/VST/ValhallaVintageVerb_x64.dll",
														"pluginsaveduniqueid" : 0,
														"version" : 1,
														"isbank" : 0,
														"isbase64" : 1,
														"blob" : "499.CMlaKA....fQPMDZ....AXWYkMC.A.P..............................................DvsVMjLgzZ....OVEFanEFarElUo4FcgcVYVUlbhABbrU2Yo4lUkI2bo8la8HRLt.iKwHBHvIWYyUFcNEVak0iHDUlYgUGazIBHMkFd8HBLh.BTxUFQkwVX40iHv3RM4LSN4jSN3HiHfPTYiEVd8HBLtTyLx.CLv.CL0HBHSkldk0iHwHBHAQGcgM1Z8HBLtTiHfHTXyMWS0wFc8HBLtXiLy.yL3biM4HBHBE1byg0a1Ulb8HBLtPCMzbCLwDCL0HBHHk1YnMEZkwlY8HBLh.BRocFZFIWYw0iHv3RMh.RQgIGa4QTZlYVcyk1at0iHwHBHLEFckQTZlYVcyk1at0iHwHBHM8FYREFck0iHv3hLzTCM0PSM1TiHfzzajQTYvQGZ8HBLtLyM4jSN4jSN0HBHHk1YnMTcz0iHv3RL4PSN4jSN4LiHfvza2MTcz0iHv3BM4HCLv.CLwPiHfLzar8lbM8FYk0iHv3hM1XiM1XiM3biHfHUY1Ulbh0zajUVOh.iKx.CNyLyLyHCNh.RaogGSuM1Z8HBLh.RcocUZjQGZ8HRNyTiHfTWZHUVZmgFc8HBMyTiHu3C.h."
													}
,
													"fileref" : 													{
														"name" : "PechenegTremolo.dll",
														"filename" : "PechenegTremolo.dll.maxsnap",
														"filepath" : "~/Documents/Max 7/Snapshots",
														"filepos" : -1,
														"snapshotfileid" : "2ff2d8617b11f34b8dc86ca3e74a426b"
													}

												}
 ]
										}

									}
,
									"text" : "vst~",
									"varname" : "vst~",
									"viewvisibility" : 0
								}

							}
, 							{
								"box" : 								{
									"id" : "obj-34",
									"maxclass" : "toggle",
									"numinlets" : 1,
									"numoutlets" : 1,
									"outlettype" : [ "int" ],
									"parameter_enable" : 0,
									"patching_rect" : [ 344.0, 203.0, 24.0, 24.0 ]
								}

							}
, 							{
								"box" : 								{
									"fontname" : "Arial",
									"fontsize" : 13.0,
									"id" : "obj-20",
									"maxclass" : "message",
									"numinlets" : 2,
									"numoutlets" : 1,
									"outlettype" : [ "" ],
									"patching_rect" : [ 344.0, 228.0, 70.0, 23.0 ],
									"text" : "bypass $1"
								}

							}
, 							{
								"box" : 								{
									"id" : "obj-38",
									"maxclass" : "toggle",
									"numinlets" : 1,
									"numoutlets" : 1,
									"outlettype" : [ "int" ],
									"parameter_enable" : 0,
									"patching_rect" : [ 344.0, 153.0, 24.0, 24.0 ]
								}

							}
, 							{
								"box" : 								{
									"fontname" : "Arial",
									"fontsize" : 13.0,
									"id" : "obj-39",
									"maxclass" : "message",
									"numinlets" : 2,
									"numoutlets" : 1,
									"outlettype" : [ "" ],
									"patching_rect" : [ 344.0, 178.0, 70.0, 23.0 ],
									"text" : "disable $1"
								}

							}
, 							{
								"box" : 								{
									"fontname" : "Arial",
									"fontsize" : 13.0,
									"id" : "obj-18",
									"maxclass" : "message",
									"numinlets" : 2,
									"numoutlets" : 1,
									"outlettype" : [ "" ],
									"patching_rect" : [ 343.0, 126.0, 70.0, 23.0 ],
									"text" : "wclose"
								}

							}
, 							{
								"box" : 								{
									"fontname" : "Arial",
									"fontsize" : 13.0,
									"id" : "obj-12",
									"maxclass" : "message",
									"numinlets" : 2,
									"numoutlets" : 1,
									"outlettype" : [ "" ],
									"patching_rect" : [ 343.0, 53.0, 70.0, 23.0 ],
									"text" : "plug"
								}

							}
 ],
						"lines" : [ 							{
								"patchline" : 								{
									"destination" : [ "obj-35", 0 ],
									"source" : [ "obj-1", 0 ]
								}

							}
, 							{
								"patchline" : 								{
									"destination" : [ "obj-35", 0 ],
									"source" : [ "obj-12", 0 ]
								}

							}
, 							{
								"patchline" : 								{
									"destination" : [ "obj-35", 0 ],
									"source" : [ "obj-18", 0 ]
								}

							}
, 							{
								"patchline" : 								{
									"destination" : [ "obj-35", 1 ],
									"source" : [ "obj-2", 0 ]
								}

							}
, 							{
								"patchline" : 								{
									"destination" : [ "obj-35", 0 ],
									"source" : [ "obj-20", 0 ]
								}

							}
, 							{
								"patchline" : 								{
									"destination" : [ "obj-20", 0 ],
									"source" : [ "obj-34", 0 ]
								}

							}
, 							{
								"patchline" : 								{
									"destination" : [ "obj-3", 0 ],
									"source" : [ "obj-35", 0 ]
								}

							}
, 							{
								"patchline" : 								{
									"destination" : [ "obj-4", 0 ],
									"source" : [ "obj-35", 1 ]
								}

							}
, 							{
								"patchline" : 								{
									"destination" : [ "obj-39", 0 ],
									"source" : [ "obj-38", 0 ]
								}

							}
, 							{
								"patchline" : 								{
									"destination" : [ "obj-35", 0 ],
									"source" : [ "obj-39", 0 ]
								}

							}
 ]
					}
,
					"patching_rect" : [ 445.161376953125, 669.170166015625, 95.0, 22.0 ],
					"saved_object_attributes" : 					{
						"description" : "",
						"digest" : "",
						"globalpatchername" : "",
						"tags" : ""
					}
,
					"text" : "patcher reatune"
				}

			}
, 			{
				"box" : 				{
					"fontname" : "Arial",
					"fontsize" : 11.595186999999999,
					"id" : "obj-57",
					"maxclass" : "newobj",
					"numinlets" : 2,
					"numoutlets" : 1,
					"outlettype" : [ "signal" ],
					"patching_rect" : [ 514.848876953125, 504.242431640625, 68.845947265625, 21.0 ],
					"text" : "cascade~"
				}

			}
, 			{
				"box" : 				{
					"fontname" : "Arial",
					"fontsize" : 11.595186999999999,
					"id" : "obj-42",
					"maxclass" : "newobj",
					"numinlets" : 2,
					"numoutlets" : 1,
					"outlettype" : [ "signal" ],
					"patching_rect" : [ 429.66845703125, 505.58154296875, 58.0, 21.0 ],
					"text" : "cascade~"
				}

			}
, 			{
				"box" : 				{
					"id" : "obj-202",
					"maxclass" : "number",
					"numinlets" : 1,
					"numoutlets" : 2,
					"outlettype" : [ "", "bang" ],
					"parameter_enable" : 0,
					"patching_rect" : [ 759.00146484375, 464.742431640625, 50.0, 22.0 ]
				}

			}
 ],
		"lines" : [ 			{
				"patchline" : 				{
					"destination" : [ "obj-1306", 0 ],
					"source" : [ "obj-1", 0 ]
				}

			}
, 			{
				"patchline" : 				{
					"destination" : [ "obj-18", 0 ],
					"midpoints" : [ 573.354248046875, 732.960693359375, 434.457275390625, 732.960693359375, 434.457275390625, 696.960693359375, 457.036376953125, 696.960693359375 ],
					"source" : [ "obj-100", 0 ]
				}

			}
, 			{
				"patchline" : 				{
					"destination" : [ "obj-1301", 0 ],
					"midpoints" : [ 470.433837890625, 915.960693359375, 457.036376953125, 915.960693359375 ],
					"source" : [ "obj-109", 0 ]
				}

			}
, 			{
				"patchline" : 				{
					"destination" : [ "obj-167", 0 ],
					"midpoints" : [ 477.59442138671875, 885.960693359375, 488.457275390625, 885.960693359375, 488.457275390625, 840.960693359375, 502.721435546875, 840.960693359375 ],
					"source" : [ "obj-109", 1 ]
				}

			}
, 			{
				"patchline" : 				{
					"destination" : [ "obj-109", 0 ],
					"midpoints" : [ 614.263671875, 879.960693359375, 530.457275390625, 879.960693359375, 530.457275390625, 840.960693359375, 470.433837890625, 840.960693359375 ],
					"source" : [ "obj-1125", 0 ]
				}

			}
, 			{
				"patchline" : 				{
					"destination" : [ "obj-18", 1 ],
					"midpoints" : [ 530.661376953125, 693.960693359375, 533.036376953125, 693.960693359375 ],
					"source" : [ "obj-121", 1 ]
				}

			}
, 			{
				"patchline" : 				{
					"destination" : [ "obj-18", 0 ],
					"midpoints" : [ 454.661376953125, 696.960693359375, 457.036376953125, 696.960693359375 ],
					"source" : [ "obj-121", 0 ]
				}

			}
, 			{
				"patchline" : 				{
					"destination" : [ "obj-4", 0 ],
					"order" : 0,
					"source" : [ "obj-1211", 0 ]
				}

			}
, 			{
				"patchline" : 				{
					"destination" : [ "obj-57", 0 ],
					"midpoints" : [ 518.15380859375, 495.960693359375, 524.348876953125, 495.960693359375 ],
					"order" : 1,
					"source" : [ "obj-1211", 0 ]
				}

			}
, 			{
				"patchline" : 				{
					"destination" : [ "obj-75", 0 ],
					"midpoints" : [ 679.70361328125, 495.960693359375, 679.70361328125, 495.960693359375 ],
					"source" : [ "obj-1212", 0 ]
				}

			}
, 			{
				"patchline" : 				{
					"destination" : [ "obj-80", 0 ],
					"midpoints" : [ 605.499755859375, 498.960693359375, 608.814208984375, 498.960693359375 ],
					"source" : [ "obj-1213", 0 ]
				}

			}
, 			{
				"patchline" : 				{
					"destination" : [ "obj-42", 0 ],
					"midpoints" : [ 435.854248046875, 498.960693359375, 439.16845703125, 498.960693359375 ],
					"order" : 1,
					"source" : [ "obj-1222", 0 ]
				}

			}
, 			{
				"patchline" : 				{
					"destination" : [ "obj-9", 0 ],
					"order" : 0,
					"source" : [ "obj-1222", 0 ]
				}

			}
, 			{
				"patchline" : 				{
					"destination" : [ "obj-400", 0 ],
					"midpoints" : [ 528.19873046875, 294.960693359375, 535.62841796875, 294.960693359375 ],
					"order" : 1,
					"source" : [ "obj-1256", 0 ]
				}

			}
, 			{
				"patchline" : 				{
					"destination" : [ "obj-7", 1 ],
					"order" : 0,
					"source" : [ "obj-1256", 0 ]
				}

			}
, 			{
				"patchline" : 				{
					"destination" : [ "obj-1300", 0 ],
					"hidden" : 1,
					"midpoints" : [ 760.035888671875, 864.960693359375, 760.035888671875, 864.960693359375 ],
					"source" : [ "obj-1267", 0 ]
				}

			}
, 			{
				"patchline" : 				{
					"destination" : [ "obj-1301", 0 ],
					"hidden" : 1,
					"midpoints" : [ 764.509521484375, 972.960693359375, 572.457275390625, 972.960693359375, 572.457275390625, 915.960693359375, 457.036376953125, 915.960693359375 ],
					"source" : [ "obj-1289", 0 ]
				}

			}
, 			{
				"patchline" : 				{
					"destination" : [ "obj-1301", 0 ],
					"hidden" : 1,
					"midpoints" : [ 776.035888671875, 927.960693359375, 572.457275390625, 927.960693359375, 572.457275390625, 915.960693359375, 457.036376953125, 915.960693359375 ],
					"source" : [ "obj-1299", 0 ]
				}

			}
, 			{
				"patchline" : 				{
					"destination" : [ "obj-1301", 0 ],
					"hidden" : 1,
					"midpoints" : [ 760.035888671875, 897.960693359375, 457.036376953125, 897.960693359375 ],
					"source" : [ "obj-1300", 0 ]
				}

			}
, 			{
				"patchline" : 				{
					"destination" : [ "obj-13", 0 ],
					"midpoints" : [ 457.036376953125, 999.960693359375, 463.216552734375, 999.960693359375 ],
					"order" : 1,
					"source" : [ "obj-1301", 0 ]
				}

			}
, 			{
				"patchline" : 				{
					"destination" : [ "obj-1505", 0 ],
					"midpoints" : [ 488.703043619791686, 984.960693359375, 651.112548828125, 984.960693359375 ],
					"order" : 0,
					"source" : [ "obj-1301", 1 ]
				}

			}
, 			{
				"patchline" : 				{
					"destination" : [ "obj-1506", 0 ],
					"midpoints" : [ 457.036376953125, 990.960693359375, 579.036376953125, 990.960693359375 ],
					"order" : 0,
					"source" : [ "obj-1301", 0 ]
				}

			}
, 			{
				"patchline" : 				{
					"destination" : [ "obj-60", 0 ],
					"midpoints" : [ 488.703043619791686, 999.960693359375, 516.457763671875, 999.960693359375 ],
					"order" : 1,
					"source" : [ "obj-1301", 1 ]
				}

			}
, 			{
				"patchline" : 				{
					"destination" : [ "obj-1299", 0 ],
					"hidden" : 1,
					"midpoints" : [ 823.277099609375, 897.960693359375, 776.035888671875, 897.960693359375 ],
					"source" : [ "obj-1306", 0 ]
				}

			}
, 			{
				"patchline" : 				{
					"destination" : [ "obj-1222", 0 ],
					"midpoints" : [ 432.636474609375, 453.960693359375, 435.854248046875, 453.960693359375 ],
					"source" : [ "obj-1347", 0 ]
				}

			}
, 			{
				"patchline" : 				{
					"destination" : [ "obj-1211", 0 ],
					"midpoints" : [ 512.37841796875, 450.960693359375, 518.15380859375, 450.960693359375 ],
					"source" : [ "obj-1350", 0 ]
				}

			}
, 			{
				"patchline" : 				{
					"destination" : [ "obj-1212", 0 ],
					"midpoints" : [ 679.70361328125, 444.960693359375, 679.70361328125, 444.960693359375 ],
					"order" : 1,
					"source" : [ "obj-1373", 0 ]
				}

			}
, 			{
				"patchline" : 				{
					"destination" : [ "obj-3", 0 ],
					"order" : 0,
					"source" : [ "obj-1373", 0 ]
				}

			}
, 			{
				"patchline" : 				{
					"destination" : [ "obj-1213", 0 ],
					"midpoints" : [ 595.541259765625, 450.960693359375, 605.499755859375, 450.960693359375 ],
					"source" : [ "obj-1377", 0 ]
				}

			}
, 			{
				"patchline" : 				{
					"destination" : [ "obj-1444", 0 ],
					"midpoints" : [ 163.957275390625, 71.0, 210.108642578125, 71.0 ],
					"order" : 1,
					"source" : [ "obj-1492", 0 ]
				}

			}
, 			{
				"patchline" : 				{
					"destination" : [ "obj-399", 1 ],
					"midpoints" : [ 163.957275390625, 474.0, 502.0, 474.0, 502.0, 543.0, 587.69873046875, 543.0 ],
					"order" : 0,
					"source" : [ "obj-1492", 0 ]
				}

			}
, 			{
				"patchline" : 				{
					"destination" : [ "obj-581", 2 ],
					"midpoints" : [ 866.728271484375, 777.960693359375, 563.457275390625, 777.960693359375, 563.457275390625, 792.960693359375, 538.8785400390625, 792.960693359375 ],
					"source" : [ "obj-1494", 0 ]
				}

			}
, 			{
				"patchline" : 				{
					"destination" : [ "obj-1289", 0 ],
					"hidden" : 1,
					"midpoints" : [ 909.45654296875, 942.960693359375, 764.509521484375, 942.960693359375 ],
					"source" : [ "obj-1498", 0 ]
				}

			}
, 			{
				"patchline" : 				{
					"destination" : [ "obj-965", 0 ],
					"midpoints" : [ 454.142822265625, 116.960693359375, 431.457275390625, 116.960693359375, 431.457275390625, 113.960693359375, 417.636474609375, 113.960693359375 ],
					"source" : [ "obj-1515", 0 ]
				}

			}
, 			{
				"patchline" : 				{
					"destination" : [ "obj-1301", 1 ],
					"midpoints" : [ 502.721435546875, 915.960693359375, 552.036376953125, 915.960693359375 ],
					"source" : [ "obj-167", 0 ]
				}

			}
, 			{
				"patchline" : 				{
					"destination" : [ "obj-18", 0 ],
					"midpoints" : [ 621.622314453125, 741.960693359375, 548.457275390625, 741.960693359375, 548.457275390625, 732.960693359375, 434.457275390625, 732.960693359375, 434.457275390625, 696.960693359375, 457.036376953125, 696.960693359375 ],
					"source" : [ "obj-171", 0 ]
				}

			}
, 			{
				"patchline" : 				{
					"destination" : [ "obj-250", 0 ],
					"midpoints" : [ 457.036376953125, 738.960693359375, 463.216552734375, 738.960693359375 ],
					"source" : [ "obj-18", 0 ]
				}

			}
, 			{
				"patchline" : 				{
					"destination" : [ "obj-252", 0 ],
					"midpoints" : [ 533.036376953125, 747.960693359375, 528.37841796875, 747.960693359375 ],
					"source" : [ "obj-18", 1 ]
				}

			}
, 			{
				"patchline" : 				{
					"destination" : [ "obj-1211", 1 ],
					"midpoints" : [ 768.50146484375, 486.960693359375, 740.457275390625, 486.960693359375, 740.457275390625, 453.960693359375, 569.378387451171875, 453.960693359375 ],
					"order" : 2,
					"source" : [ "obj-202", 0 ]
				}

			}
, 			{
				"patchline" : 				{
					"destination" : [ "obj-1212", 1 ],
					"midpoints" : [ 768.50146484375, 486.960693359375, 740.457275390625, 486.960693359375, 740.457275390625, 453.960693359375, 730.928192138671875, 453.960693359375 ],
					"order" : 0,
					"source" : [ "obj-202", 0 ]
				}

			}
, 			{
				"patchline" : 				{
					"destination" : [ "obj-1213", 1 ],
					"midpoints" : [ 768.50146484375, 486.960693359375, 740.457275390625, 486.960693359375, 740.457275390625, 453.960693359375, 656.724334716796875, 453.960693359375 ],
					"order" : 1,
					"source" : [ "obj-202", 0 ]
				}

			}
, 			{
				"patchline" : 				{
					"destination" : [ "obj-1222", 1 ],
					"midpoints" : [ 768.50146484375, 486.960693359375, 755.457275390625, 486.960693359375, 755.457275390625, 393.960693359375, 497.457275390625, 393.960693359375, 497.457275390625, 450.960693359375, 487.078826904296875, 450.960693359375 ],
					"order" : 3,
					"source" : [ "obj-202", 0 ]
				}

			}
, 			{
				"patchline" : 				{
					"destination" : [ "obj-581", 0 ],
					"midpoints" : [ 463.216552734375, 777.960693359375, 463.216552734375, 777.960693359375 ],
					"source" : [ "obj-250", 0 ]
				}

			}
, 			{
				"patchline" : 				{
					"destination" : [ "obj-581", 1 ],
					"midpoints" : [ 528.37841796875, 792.960693359375, 501.04754638671875, 792.960693359375 ],
					"source" : [ "obj-252", 0 ]
				}

			}
, 			{
				"patchline" : 				{
					"destination" : [ "obj-417", 0 ],
					"midpoints" : [ 562.69873046875, 561.960693359375, 454.661376953125, 561.960693359375 ],
					"source" : [ "obj-399", 0 ]
				}

			}
, 			{
				"patchline" : 				{
					"destination" : [ "obj-418", 0 ],
					"midpoints" : [ 587.69873046875, 570.960693359375, 608.814208984375, 570.960693359375 ],
					"source" : [ "obj-399", 1 ]
				}

			}
, 			{
				"patchline" : 				{
					"destination" : [ "obj-399", 0 ],
					"midpoints" : [ 535.62841796875, 393.960693359375, 497.457275390625, 393.960693359375, 497.457275390625, 534.960693359375, 562.69873046875, 534.960693359375 ],
					"order" : 2,
					"source" : [ "obj-400", 0 ]
				}

			}
, 			{
				"patchline" : 				{
					"destination" : [ "obj-426", 0 ],
					"midpoints" : [ 535.62841796875, 333.960693359375, 566.457275390625, 333.960693359375, 566.457275390625, 327.960693359375, 579.036376953125, 327.960693359375 ],
					"order" : 1,
					"source" : [ "obj-400", 0 ]
				}

			}
, 			{
				"patchline" : 				{
					"destination" : [ "obj-958", 0 ],
					"midpoints" : [ 535.62841796875, 333.960693359375, 566.457275390625, 333.960693359375, 566.457275390625, 315.960693359375, 639.31640625, 315.960693359375 ],
					"order" : 0,
					"source" : [ "obj-400", 0 ]
				}

			}
, 			{
				"patchline" : 				{
					"destination" : [ "obj-121", 0 ],
					"midpoints" : [ 454.661376953125, 630.960693359375, 454.661376953125, 630.960693359375 ],
					"source" : [ "obj-417", 0 ]
				}

			}
, 			{
				"patchline" : 				{
					"destination" : [ "obj-56", 0 ],
					"midpoints" : [ 465.559814453125, 630.960693359375, 476.457275390625, 630.960693359375, 476.457275390625, 570.960693359375, 528.37841796875, 570.960693359375 ],
					"source" : [ "obj-417", 1 ]
				}

			}
, 			{
				"patchline" : 				{
					"destination" : [ "obj-12", 0 ],
					"order" : 0,
					"source" : [ "obj-418", 0 ]
				}

			}
, 			{
				"patchline" : 				{
					"destination" : [ "obj-121", 0 ],
					"midpoints" : [ 608.814208984375, 654.960693359375, 454.661376953125, 654.960693359375 ],
					"order" : 1,
					"source" : [ "obj-418", 0 ]
				}

			}
, 			{
				"patchline" : 				{
					"destination" : [ "obj-419", 0 ],
					"midpoints" : [ 622.40447998046875, 630.960693359375, 631.979248046875, 630.960693359375, 631.979248046875, 570.960693359375, 687.697021484375, 570.960693359375 ],
					"source" : [ "obj-418", 1 ]
				}

			}
, 			{
				"patchline" : 				{
					"destination" : [ "obj-121", 1 ],
					"midpoints" : [ 687.697021484375, 654.960693359375, 530.661376953125, 654.960693359375 ],
					"source" : [ "obj-419", 0 ]
				}

			}
, 			{
				"patchline" : 				{
					"destination" : [ "obj-417", 0 ],
					"midpoints" : [ 439.16845703125, 561.960693359375, 454.661376953125, 561.960693359375 ],
					"source" : [ "obj-42", 0 ]
				}

			}
, 			{
				"patchline" : 				{
					"destination" : [ "obj-42", 1 ],
					"midpoints" : [ 579.036376953125, 393.960693359375, 497.457275390625, 393.960693359375, 497.457275390625, 498.960693359375, 478.16845703125, 498.960693359375 ],
					"order" : 1,
					"source" : [ "obj-426", 0 ]
				}

			}
, 			{
				"patchline" : 				{
					"destination" : [ "obj-57", 1 ],
					"midpoints" : [ 579.036376953125, 495.960693359375, 574.19482421875, 495.960693359375 ],
					"order" : 0,
					"source" : [ "obj-426", 0 ]
				}

			}
, 			{
				"patchline" : 				{
					"destination" : [ "obj-75", 1 ],
					"midpoints" : [ 604.036376953125, 393.960693359375, 755.457275390625, 393.960693359375, 755.457275390625, 498.960693359375, 729.549560546875, 498.960693359375 ],
					"order" : 0,
					"source" : [ "obj-426", 1 ]
				}

			}
, 			{
				"patchline" : 				{
					"destination" : [ "obj-80", 1 ],
					"midpoints" : [ 604.036376953125, 393.960693359375, 665.457275390625, 393.960693359375, 665.457275390625, 498.960693359375, 653.41015625, 498.960693359375 ],
					"order" : 1,
					"source" : [ "obj-426", 1 ]
				}

			}
, 			{
				"patchline" : 				{
					"destination" : [ "obj-42", 1 ],
					"midpoints" : [ 768.50146484375, 534.960693359375, 494.457275390625, 534.960693359375, 494.457275390625, 501.960693359375, 478.16845703125, 501.960693359375 ],
					"order" : 3,
					"source" : [ "obj-522", 0 ]
				}

			}
, 			{
				"patchline" : 				{
					"destination" : [ "obj-57", 1 ],
					"midpoints" : [ 768.50146484375, 534.960693359375, 584.457275390625, 534.960693359375, 584.457275390625, 498.960693359375, 574.19482421875, 498.960693359375 ],
					"order" : 2,
					"source" : [ "obj-522", 0 ]
				}

			}
, 			{
				"patchline" : 				{
					"destination" : [ "obj-75", 1 ],
					"midpoints" : [ 768.50146484375, 519.960693359375, 737.457275390625, 519.960693359375, 737.457275390625, 498.960693359375, 729.549560546875, 498.960693359375 ],
					"order" : 0,
					"source" : [ "obj-522", 0 ]
				}

			}
, 			{
				"patchline" : 				{
					"destination" : [ "obj-80", 1 ],
					"midpoints" : [ 768.50146484375, 534.960693359375, 662.457275390625, 534.960693359375, 662.457275390625, 498.960693359375, 653.41015625, 498.960693359375 ],
					"order" : 1,
					"source" : [ "obj-522", 0 ]
				}

			}
, 			{
				"patchline" : 				{
					"destination" : [ "obj-399", 0 ],
					"midpoints" : [ 233.601318359375, 540.960693359375, 503.457275390625, 540.960693359375, 503.457275390625, 534.960693359375, 562.69873046875, 534.960693359375 ],
					"order" : 1,
					"source" : [ "obj-525", 0 ]
				}

			}
, 			{
				"patchline" : 				{
					"destination" : [ "obj-426", 0 ],
					"midpoints" : [ 233.601318359375, 540.960693359375, 407.457275390625, 540.960693359375, 407.457275390625, 342.960693359375, 566.457275390625, 342.960693359375, 566.457275390625, 327.960693359375, 579.036376953125, 327.960693359375 ],
					"order" : 0,
					"source" : [ "obj-525", 0 ]
				}

			}
, 			{
				"patchline" : 				{
					"destination" : [ "obj-121", 1 ],
					"midpoints" : [ 528.37841796875, 654.960693359375, 530.661376953125, 654.960693359375 ],
					"source" : [ "obj-56", 0 ]
				}

			}
, 			{
				"patchline" : 				{
					"destination" : [ "obj-56", 0 ],
					"midpoints" : [ 524.348876953125, 525.960693359375, 503.457275390625, 525.960693359375, 503.457275390625, 561.960693359375, 528.37841796875, 561.960693359375 ],
					"source" : [ "obj-57", 0 ]
				}

			}
, 			{
				"patchline" : 				{
					"destination" : [ "obj-109", 0 ],
					"midpoints" : [ 463.216552734375, 837.960693359375, 470.433837890625, 837.960693359375 ],
					"source" : [ "obj-581", 0 ]
				}

			}
, 			{
				"patchline" : 				{
					"destination" : [ "obj-167", 0 ],
					"midpoints" : [ 538.8785400390625, 840.960693359375, 502.721435546875, 840.960693359375 ],
					"source" : [ "obj-581", 1 ]
				}

			}
, 			{
				"patchline" : 				{
					"destination" : [ "obj-121", 0 ],
					"midpoints" : [ 621.622314453125, 690.960693359375, 602.457275390625, 690.960693359375, 602.457275390625, 654.960693359375, 454.661376953125, 654.960693359375 ],
					"source" : [ "obj-67", 0 ]
				}

			}
, 			{
				"patchline" : 				{
					"destination" : [ "obj-419", 0 ],
					"midpoints" : [ 679.70361328125, 561.960693359375, 687.697021484375, 561.960693359375 ],
					"source" : [ "obj-75", 0 ]
				}

			}
, 			{
				"patchline" : 				{
					"destination" : [ "obj-426", 1 ],
					"midpoints" : [ 586.036376953125, 249.0, 604.036376953125, 249.0 ],
					"order" : 0,
					"source" : [ "obj-8", 0 ]
				}

			}
, 			{
				"patchline" : 				{
					"destination" : [ "obj-957", 1 ],
					"order" : 1,
					"source" : [ "obj-8", 0 ]
				}

			}
, 			{
				"patchline" : 				{
					"destination" : [ "obj-418", 0 ],
					"midpoints" : [ 608.814208984375, 561.960693359375, 608.814208984375, 561.960693359375 ],
					"source" : [ "obj-80", 0 ]
				}

			}
, 			{
				"patchline" : 				{
					"destination" : [ "obj-121", 0 ],
					"midpoints" : [ 573.354248046875, 690.960693359375, 539.457275390625, 690.960693359375, 539.457275390625, 654.960693359375, 454.661376953125, 654.960693359375 ],
					"source" : [ "obj-83", 0 ]
				}

			}
, 			{
				"patchline" : 				{
					"destination" : [ "obj-958", 1 ],
					"source" : [ "obj-957", 0 ]
				}

			}
, 			{
				"patchline" : 				{
					"destination" : [ "obj-42", 1 ],
					"midpoints" : [ 639.31640625, 393.960693359375, 497.457275390625, 393.960693359375, 497.457275390625, 498.960693359375, 478.16845703125, 498.960693359375 ],
					"order" : 1,
					"source" : [ "obj-958", 0 ]
				}

			}
, 			{
				"patchline" : 				{
					"destination" : [ "obj-57", 1 ],
					"midpoints" : [ 639.31640625, 393.960693359375, 578.457275390625, 393.960693359375, 578.457275390625, 495.960693359375, 574.19482421875, 495.960693359375 ],
					"order" : 0,
					"source" : [ "obj-958", 0 ]
				}

			}
, 			{
				"patchline" : 				{
					"destination" : [ "obj-75", 1 ],
					"midpoints" : [ 664.31640625, 393.960693359375, 755.457275390625, 393.960693359375, 755.457275390625, 498.960693359375, 729.549560546875, 498.960693359375 ],
					"order" : 0,
					"source" : [ "obj-958", 1 ]
				}

			}
, 			{
				"patchline" : 				{
					"destination" : [ "obj-80", 1 ],
					"midpoints" : [ 664.31640625, 453.960693359375, 665.457275390625, 453.960693359375, 665.457275390625, 498.960693359375, 653.41015625, 498.960693359375 ],
					"order" : 1,
					"source" : [ "obj-958", 1 ]
				}

			}
, 			{
				"patchline" : 				{
					"destination" : [ "obj-957", 0 ],
					"midpoints" : [ 417.636474609375, 258.0, 457.036376953125, 258.0 ],
					"source" : [ "obj-965", 0 ]
				}

			}
 ],
		"styles" : [ 			{
				"name" : "AudioStatus_Menu",
				"default" : 				{
					"bgfillcolor" : 					{
						"type" : "color",
						"color" : [ 0.294118, 0.313726, 0.337255, 1 ],
						"color1" : [ 0.454902, 0.462745, 0.482353, 0.0 ],
						"color2" : [ 0.290196, 0.309804, 0.301961, 1.0 ],
						"angle" : 270.0,
						"proportion" : 0.39,
						"autogradient" : 0
					}

				}
,
				"parentstyle" : "",
				"multi" : 0
			}
, 			{
				"name" : "numberGold-1",
				"default" : 				{
					"accentcolor" : [ 0.764706, 0.592157, 0.101961, 1.0 ]
				}
,
				"parentstyle" : "",
				"multi" : 0
			}
 ]
	}

}
