{
	"patcher" : 	{
		"fileversion" : 1,
		"appversion" : 		{
			"major" : 7,
			"minor" : 3,
			"revision" : 4,
			"architecture" : "x64",
			"modernui" : 1
		}
,
		"rect" : [ 154.0, 135.0, 769.0, 881.0 ],
		"bglocked" : 0,
		"openinpresentation" : 0,
		"default_fontsize" : 12.0,
		"default_fontface" : 0,
		"default_fontname" : "Arial",
		"gridonopen" : 1,
		"gridsize" : [ 15.0, 15.0 ],
		"gridsnaponopen" : 1,
		"objectsnaponopen" : 1,
		"statusbarvisible" : 2,
		"toolbarvisible" : 1,
		"lefttoolbarpinned" : 0,
		"toptoolbarpinned" : 0,
		"righttoolbarpinned" : 0,
		"bottomtoolbarpinned" : 0,
		"toolbars_unpinned_last_save" : 0,
		"tallnewobj" : 0,
		"boxanimatetime" : 200,
		"enablehscroll" : 1,
		"enablevscroll" : 1,
		"devicewidth" : 0.0,
		"description" : "",
		"digest" : "",
		"tags" : "",
		"style" : "",
		"subpatcher_template" : "",
		"boxes" : [ 			{
				"box" : 				{
					"id" : "obj-1010",
					"maxclass" : "newobj",
					"numinlets" : 2,
					"numoutlets" : 2,
					"outlettype" : [ "", "" ],
					"patching_rect" : [ 192.0, 102.0, 57.0, 22.0 ],
					"style" : "",
					"text" : "zl ecils 1"
				}

			}
, 			{
				"box" : 				{
					"id" : "obj-1011",
					"maxclass" : "newobj",
					"numinlets" : 2,
					"numoutlets" : 2,
					"outlettype" : [ "", "" ],
					"patching_rect" : [ 104.0, 98.0, 57.0, 22.0 ],
					"style" : "",
					"text" : "zl ecils 1"
				}

			}
, 			{
				"box" : 				{
					"id" : "obj-1012",
					"maxclass" : "newobj",
					"numinlets" : 1,
					"numoutlets" : 1,
					"outlettype" : [ "" ],
					"patching_rect" : [ 104.0, 233.0, 82.0, 22.0 ],
					"style" : "",
					"text" : "prepend read"
				}

			}
, 			{
				"box" : 				{
					"id" : "obj-118",
					"maxclass" : "newobj",
					"numinlets" : 1,
					"numoutlets" : 1,
					"outlettype" : [ "" ],
					"patching_rect" : [ 192.0, 233.0, 83.0, 22.0 ],
					"style" : "",
					"text" : "prepend write"
				}

			}
, 			{
				"box" : 				{
					"id" : "obj-1013",
					"maxclass" : "newobj",
					"numinlets" : 1,
					"numoutlets" : 5,
					"outlettype" : [ "", "", "", "", "" ],
					"patching_rect" : [ 192.0, 128.0, 69.0, 22.0 ],
					"style" : "",
					"text" : "regexp \" \" /"
				}

			}
, 			{
				"box" : 				{
					"id" : "obj-1014",
					"maxclass" : "newobj",
					"numinlets" : 1,
					"numoutlets" : 5,
					"outlettype" : [ "", "", "", "", "" ],
					"patching_rect" : [ 104.0, 128.0, 69.0, 22.0 ],
					"style" : "",
					"text" : "regexp \" \" /"
				}

			}
, 			{
				"box" : 				{
					"id" : "obj-1015",
					"maxclass" : "newobj",
					"numinlets" : 1,
					"numoutlets" : 5,
					"outlettype" : [ "", "", "", "", "" ],
					"patching_rect" : [ 104.0, 200.0, 61.0, 22.0 ],
					"saved_object_attributes" : 					{
						"filename" : "slice.js",
						"parameter_enable" : 0
					}
,
					"style" : "",
					"text" : "js slice.js"
				}

			}
, 			{
				"box" : 				{
					"id" : "obj-1016",
					"linecount" : 2,
					"maxclass" : "newobj",
					"numinlets" : 1,
					"numoutlets" : 1,
					"outlettype" : [ "" ],
					"patching_rect" : [ 192.0, 152.0, 62.0, 36.0 ],
					"style" : "",
					"text" : "prepend writesong"
				}

			}
, 			{
				"box" : 				{
					"id" : "obj-1017",
					"linecount" : 2,
					"maxclass" : "newobj",
					"numinlets" : 1,
					"numoutlets" : 1,
					"outlettype" : [ "" ],
					"patching_rect" : [ 104.0, 152.0, 77.0, 36.0 ],
					"style" : "",
					"text" : "prepend readsong"
				}

			}
, 			{
				"box" : 				{
					"id" : "obj-1018",
					"maxclass" : "newobj",
					"numinlets" : 3,
					"numoutlets" : 3,
					"outlettype" : [ "", "", "" ],
					"patching_rect" : [ 104.0, 68.0, 94.0, 22.0 ],
					"style" : "",
					"text" : "route read write"
				}

			}
, 			{
				"box" : 				{
					"id" : "obj-1007",
					"maxclass" : "newobj",
					"numinlets" : 1,
					"numoutlets" : 0,
					"patching_rect" : [ 447.337891, 285.030396, 50.0, 22.0 ],
					"style" : "",
					"text" : "s path3"
				}

			}
, 			{
				"box" : 				{
					"id" : "obj-1006",
					"maxclass" : "newobj",
					"numinlets" : 1,
					"numoutlets" : 0,
					"patching_rect" : [ 388.443115, 285.030396, 50.0, 22.0 ],
					"style" : "",
					"text" : "s path2"
				}

			}
, 			{
				"box" : 				{
					"id" : "obj-1005",
					"maxclass" : "newobj",
					"numinlets" : 1,
					"numoutlets" : 0,
					"patching_rect" : [ 334.429321, 285.030396, 50.0, 22.0 ],
					"style" : "",
					"text" : "s path1"
				}

			}
, 			{
				"box" : 				{
					"id" : "obj-1004",
					"maxclass" : "message",
					"numinlets" : 2,
					"numoutlets" : 1,
					"outlettype" : [ "" ],
					"patching_rect" : [ 419.5, 229.030396, 29.5, 22.0 ],
					"style" : "",
					"text" : "3"
				}

			}
, 			{
				"box" : 				{
					"id" : "obj-1002",
					"maxclass" : "message",
					"numinlets" : 2,
					"numoutlets" : 1,
					"outlettype" : [ "" ],
					"patching_rect" : [ 419.5, 202.096558, 29.5, 22.0 ],
					"style" : "",
					"text" : "2"
				}

			}
, 			{
				"box" : 				{
					"id" : "obj-1000",
					"maxclass" : "message",
					"numinlets" : 2,
					"numoutlets" : 1,
					"outlettype" : [ "" ],
					"patching_rect" : [ 419.5, 178.030396, 29.5, 22.0 ],
					"style" : "",
					"text" : "1"
				}

			}
, 			{
				"box" : 				{
					"id" : "obj-996",
					"maxclass" : "newobj",
					"numinlets" : 0,
					"numoutlets" : 1,
					"outlettype" : [ "" ],
					"patching_rect" : [ 480.233398, 159.439331, 65.0, 22.0 ],
					"style" : "",
					"text" : "r getpath3"
				}

			}
, 			{
				"box" : 				{
					"id" : "obj-995",
					"maxclass" : "newobj",
					"numinlets" : 0,
					"numoutlets" : 1,
					"outlettype" : [ "" ],
					"patching_rect" : [ 480.233398, 131.439331, 65.0, 22.0 ],
					"style" : "",
					"text" : "r getpath2"
				}

			}
, 			{
				"box" : 				{
					"id" : "obj-988",
					"maxclass" : "newobj",
					"numinlets" : 2,
					"numoutlets" : 3,
					"outlettype" : [ "", "", "" ],
					"patching_rect" : [ 334.429321, 233.439331, 44.0, 22.0 ],
					"style" : "",
					"text" : "gate 3"
				}

			}
, 			{
				"box" : 				{
					"id" : "obj-983",
					"maxclass" : "newobj",
					"numinlets" : 1,
					"numoutlets" : 2,
					"outlettype" : [ "", "int" ],
					"patching_rect" : [ 447.337891, 62.030396, 57.0, 22.0 ],
					"style" : "",
					"text" : "strippath"
				}

			}
, 			{
				"box" : 				{
					"id" : "obj-982",
					"maxclass" : "newobj",
					"numinlets" : 1,
					"numoutlets" : 2,
					"outlettype" : [ "", "int" ],
					"patching_rect" : [ 384.943115, 62.030396, 57.0, 22.0 ],
					"style" : "",
					"text" : "strippath"
				}

			}
, 			{
				"box" : 				{
					"id" : "obj-978",
					"maxclass" : "newobj",
					"numinlets" : 0,
					"numoutlets" : 1,
					"outlettype" : [ "" ],
					"patching_rect" : [ 447.337891, 31.030396, 48.0, 22.0 ],
					"style" : "",
					"text" : "r path3"
				}

			}
, 			{
				"box" : 				{
					"id" : "obj-977",
					"maxclass" : "newobj",
					"numinlets" : 0,
					"numoutlets" : 1,
					"outlettype" : [ "" ],
					"patching_rect" : [ 384.943115, 31.030396, 48.0, 22.0 ],
					"style" : "",
					"text" : "r path2"
				}

			}
, 			{
				"box" : 				{
					"id" : "obj-968",
					"maxclass" : "newobj",
					"numinlets" : 2,
					"numoutlets" : 2,
					"outlettype" : [ "", "" ],
					"patching_rect" : [ 316.929321, 193.096558, 79.0, 22.0 ],
					"style" : "",
					"text" : "route symbol"
				}

			}
, 			{
				"box" : 				{
					"id" : "obj-963",
					"maxclass" : "newobj",
					"numinlets" : 0,
					"numoutlets" : 1,
					"outlettype" : [ "" ],
					"patching_rect" : [ 409.0, 131.439331, 65.0, 22.0 ],
					"style" : "",
					"text" : "r getpath1"
				}

			}
, 			{
				"box" : 				{
					"id" : "obj-955",
					"maxclass" : "newobj",
					"numinlets" : 1,
					"numoutlets" : 1,
					"outlettype" : [ "" ],
					"patching_rect" : [ 316.929321, 131.439331, 85.0, 22.0 ],
					"style" : "",
					"text" : "prepend store"
				}

			}
, 			{
				"box" : 				{
					"id" : "obj-952",
					"maxclass" : "newobj",
					"numinlets" : 1,
					"numoutlets" : 2,
					"outlettype" : [ "", "int" ],
					"patching_rect" : [ 316.929321, 62.030396, 57.0, 22.0 ],
					"style" : "",
					"text" : "strippath"
				}

			}
, 			{
				"box" : 				{
					"id" : "obj-951",
					"maxclass" : "newobj",
					"numinlets" : 2,
					"numoutlets" : 1,
					"outlettype" : [ "" ],
					"patching_rect" : [ 316.929321, 99.030396, 95.0, 22.0 ],
					"style" : "",
					"text" : "join @triggers 0"
				}

			}
, 			{
				"box" : 				{
					"id" : "obj-949",
					"maxclass" : "newobj",
					"numinlets" : 0,
					"numoutlets" : 1,
					"outlettype" : [ "" ],
					"patching_rect" : [ 316.929321, 31.030396, 48.0, 22.0 ],
					"style" : "",
					"text" : "r path1"
				}

			}
, 			{
				"box" : 				{
					"id" : "obj-948",
					"maxclass" : "newobj",
					"numinlets" : 1,
					"numoutlets" : 4,
					"outlettype" : [ "", "", "", "" ],
					"patching_rect" : [ 316.929321, 164.096558, 91.0, 22.0 ],
					"saved_object_attributes" : 					{
						"embed" : 0
					}
,
					"style" : "",
					"text" : "coll pathnames"
				}

			}
, 			{
				"box" : 				{
					"comment" : "",
					"id" : "obj-1",
					"index" : 1,
					"maxclass" : "inlet",
					"numinlets" : 0,
					"numoutlets" : 1,
					"outlettype" : [ "" ],
					"patching_rect" : [ 104.0, 13.0, 30.0, 30.0 ],
					"style" : ""
				}

			}
 ],
		"lines" : [ 			{
				"patchline" : 				{
					"destination" : [ "obj-1018", 0 ],
					"source" : [ "obj-1", 0 ]
				}

			}
, 			{
				"patchline" : 				{
					"destination" : [ "obj-988", 0 ],
					"midpoints" : [ 429.0, 201.030395, 404.250122, 201.030395, 404.250122, 228.030395, 343.929321, 228.030395 ],
					"source" : [ "obj-1000", 0 ]
				}

			}
, 			{
				"patchline" : 				{
					"destination" : [ "obj-988", 0 ],
					"midpoints" : [ 429.0, 225.030395, 343.929321, 225.030395 ],
					"source" : [ "obj-1002", 0 ]
				}

			}
, 			{
				"patchline" : 				{
					"destination" : [ "obj-988", 0 ],
					"midpoints" : [ 429.0, 252.030395, 389.250122, 252.030395, 389.250122, 228.030395, 343.929321, 228.030395 ],
					"source" : [ "obj-1004", 0 ]
				}

			}
, 			{
				"patchline" : 				{
					"destination" : [ "obj-1013", 0 ],
					"source" : [ "obj-1010", 0 ]
				}

			}
, 			{
				"patchline" : 				{
					"destination" : [ "obj-1014", 0 ],
					"source" : [ "obj-1011", 0 ]
				}

			}
, 			{
				"patchline" : 				{
					"destination" : [ "obj-948", 0 ],
					"midpoints" : [ 113.5, 267.0, 303.0, 267.0, 303.0, 159.0, 326.429321, 159.0 ],
					"source" : [ "obj-1012", 0 ]
				}

			}
, 			{
				"patchline" : 				{
					"destination" : [ "obj-1016", 0 ],
					"source" : [ "obj-1013", 3 ]
				}

			}
, 			{
				"patchline" : 				{
					"destination" : [ "obj-1016", 0 ],
					"source" : [ "obj-1013", 0 ]
				}

			}
, 			{
				"patchline" : 				{
					"destination" : [ "obj-1017", 0 ],
					"source" : [ "obj-1014", 3 ]
				}

			}
, 			{
				"patchline" : 				{
					"destination" : [ "obj-1017", 0 ],
					"source" : [ "obj-1014", 0 ]
				}

			}
, 			{
				"patchline" : 				{
					"destination" : [ "obj-1012", 0 ],
					"source" : [ "obj-1015", 0 ]
				}

			}
, 			{
				"patchline" : 				{
					"destination" : [ "obj-118", 0 ],
					"source" : [ "obj-1015", 1 ]
				}

			}
, 			{
				"patchline" : 				{
					"destination" : [ "obj-1015", 0 ],
					"source" : [ "obj-1016", 0 ]
				}

			}
, 			{
				"patchline" : 				{
					"destination" : [ "obj-1015", 0 ],
					"source" : [ "obj-1017", 0 ]
				}

			}
, 			{
				"patchline" : 				{
					"destination" : [ "obj-1010", 0 ],
					"source" : [ "obj-1018", 1 ]
				}

			}
, 			{
				"patchline" : 				{
					"destination" : [ "obj-1011", 0 ],
					"source" : [ "obj-1018", 0 ]
				}

			}
, 			{
				"patchline" : 				{
					"destination" : [ "obj-948", 0 ],
					"midpoints" : [ 201.5, 267.0, 303.0, 267.0, 303.0, 159.0, 326.429321, 159.0 ],
					"source" : [ "obj-118", 0 ]
				}

			}
, 			{
				"patchline" : 				{
					"destination" : [ "obj-968", 0 ],
					"midpoints" : [ 326.429321, 189.030395, 326.429321, 189.030395 ],
					"source" : [ "obj-948", 0 ]
				}

			}
, 			{
				"patchline" : 				{
					"destination" : [ "obj-951", 1 ],
					"midpoints" : [ 326.429321, 54.030395, 380.250122, 54.030395, 380.250122, 93.030395, 402.429321, 93.030395 ],
					"order" : 0,
					"source" : [ "obj-949", 0 ]
				}

			}
, 			{
				"patchline" : 				{
					"destination" : [ "obj-952", 0 ],
					"midpoints" : [ 326.429321, 54.030395, 326.429321, 54.030395 ],
					"order" : 1,
					"source" : [ "obj-949", 0 ]
				}

			}
, 			{
				"patchline" : 				{
					"destination" : [ "obj-955", 0 ],
					"midpoints" : [ 326.429321, 123.030395, 326.429321, 123.030395 ],
					"source" : [ "obj-951", 0 ]
				}

			}
, 			{
				"patchline" : 				{
					"destination" : [ "obj-951", 0 ],
					"midpoints" : [ 326.429321, 87.030395, 326.429321, 87.030395 ],
					"source" : [ "obj-952", 0 ]
				}

			}
, 			{
				"patchline" : 				{
					"destination" : [ "obj-948", 0 ],
					"midpoints" : [ 326.429321, 156.030395, 326.429321, 156.030395 ],
					"source" : [ "obj-955", 0 ]
				}

			}
, 			{
				"patchline" : 				{
					"destination" : [ "obj-1000", 0 ],
					"midpoints" : [ 418.5, 165.030395, 429.0, 165.030395 ],
					"order" : 0,
					"source" : [ "obj-963", 0 ]
				}

			}
, 			{
				"patchline" : 				{
					"destination" : [ "obj-948", 0 ],
					"midpoints" : [ 418.5, 156.030395, 326.429321, 156.030395 ],
					"order" : 1,
					"source" : [ "obj-963", 0 ]
				}

			}
, 			{
				"patchline" : 				{
					"destination" : [ "obj-988", 1 ],
					"midpoints" : [ 386.429321, 218.030395, 368.929321, 218.030395 ],
					"source" : [ "obj-968", 1 ]
				}

			}
, 			{
				"patchline" : 				{
					"destination" : [ "obj-988", 1 ],
					"midpoints" : [ 326.429321, 224.030395, 368.929321, 224.030395 ],
					"source" : [ "obj-968", 0 ]
				}

			}
, 			{
				"patchline" : 				{
					"destination" : [ "obj-951", 1 ],
					"midpoints" : [ 394.443115, 54.030395, 380.250122, 54.030395, 380.250122, 93.030395, 402.429321, 93.030395 ],
					"order" : 0,
					"source" : [ "obj-977", 0 ]
				}

			}
, 			{
				"patchline" : 				{
					"destination" : [ "obj-982", 0 ],
					"midpoints" : [ 394.443115, 54.030395, 394.443115, 54.030395 ],
					"order" : 1,
					"source" : [ "obj-977", 0 ]
				}

			}
, 			{
				"patchline" : 				{
					"destination" : [ "obj-951", 1 ],
					"midpoints" : [ 456.837891, 54.030395, 443.250122, 54.030395, 443.250122, 96.030395, 402.429321, 96.030395 ],
					"order" : 1,
					"source" : [ "obj-978", 0 ]
				}

			}
, 			{
				"patchline" : 				{
					"destination" : [ "obj-983", 0 ],
					"midpoints" : [ 456.837891, 54.030395, 456.837891, 54.030395 ],
					"order" : 0,
					"source" : [ "obj-978", 0 ]
				}

			}
, 			{
				"patchline" : 				{
					"destination" : [ "obj-951", 0 ],
					"midpoints" : [ 394.443115, 87.030395, 329.250122, 87.030395, 329.250122, 93.030395, 326.429321, 93.030395 ],
					"source" : [ "obj-982", 0 ]
				}

			}
, 			{
				"patchline" : 				{
					"destination" : [ "obj-951", 0 ],
					"midpoints" : [ 456.837891, 96.030395, 326.429321, 96.030395 ],
					"source" : [ "obj-983", 0 ]
				}

			}
, 			{
				"patchline" : 				{
					"destination" : [ "obj-1005", 0 ],
					"source" : [ "obj-988", 0 ]
				}

			}
, 			{
				"patchline" : 				{
					"destination" : [ "obj-1006", 0 ],
					"source" : [ "obj-988", 1 ]
				}

			}
, 			{
				"patchline" : 				{
					"destination" : [ "obj-1007", 0 ],
					"source" : [ "obj-988", 2 ]
				}

			}
, 			{
				"patchline" : 				{
					"destination" : [ "obj-1002", 0 ],
					"midpoints" : [ 489.733398, 156.030395, 464.250122, 156.030395, 464.250122, 165.030395, 416.250122, 165.030395, 416.250122, 198.030395, 429.0, 198.030395 ],
					"order" : 0,
					"source" : [ "obj-995", 0 ]
				}

			}
, 			{
				"patchline" : 				{
					"destination" : [ "obj-948", 0 ],
					"midpoints" : [ 489.733398, 156.030395, 326.429321, 156.030395 ],
					"order" : 1,
					"source" : [ "obj-995", 0 ]
				}

			}
, 			{
				"patchline" : 				{
					"destination" : [ "obj-1004", 0 ],
					"midpoints" : [ 489.733398, 225.030395, 429.0, 225.030395 ],
					"order" : 0,
					"source" : [ "obj-996", 0 ]
				}

			}
, 			{
				"patchline" : 				{
					"destination" : [ "obj-948", 0 ],
					"midpoints" : [ 489.733398, 183.030395, 458.250122, 183.030395, 458.250122, 165.030395, 407.250122, 165.030395, 407.250122, 159.030395, 326.429321, 159.030395 ],
					"order" : 1,
					"source" : [ "obj-996", 0 ]
				}

			}
 ],
		"styles" : [ 			{
				"name" : "AudioStatus_Menu",
				"default" : 				{
					"bgfillcolor" : 					{
						"type" : "color",
						"color" : [ 0.294118, 0.313726, 0.337255, 1 ],
						"color1" : [ 0.454902, 0.462745, 0.482353, 0.0 ],
						"color2" : [ 0.290196, 0.309804, 0.301961, 1.0 ],
						"angle" : 270.0,
						"proportion" : 0.39,
						"autogradient" : 0
					}

				}
,
				"parentstyle" : "",
				"multi" : 0
			}
 ]
	}

}
